<?xml version="1.0" encoding="utf-8"?>
<!-- Generator: Adobe Illustrator 23.0.0, SVG Export Plug-In . SVG Version: 6.00 Build 0)  -->
<svg version="1.1" id="Layer_1" xmlns="http://www.w3.org/2000/svg" xmlns:xlink="http://www.w3.org/1999/xlink" x="0px" y="0px"
	 viewBox="0 0 65 65" style="enable-background:new 0 0 65 65;" xml:space="preserve">
<style type="text/css">
	.st0{fill:#FFFFFF;}
	.st1{fill:#D4145A;}
	.st2{fill-rule:evenodd;clip-rule:evenodd;fill:#FFFFFF;}
</style>
<g>
	<path class="st0" d="M32.5,64.3c-17.6,0-31.8-14.3-31.8-31.8S14.9,0.7,32.5,0.7s31.8,14.3,31.8,31.8S50.1,64.3,32.5,64.3z"/>
	<path class="st1" d="M32.5,1.2c17.3,0,31.3,14.1,31.3,31.3c0,17.3-14.1,31.3-31.3,31.3c-17.3,0-31.3-14.1-31.3-31.3
		C1.2,15.2,15.2,1.2,32.5,1.2 M32.5,0.2C14.6,0.2,0.2,14.6,0.2,32.5c0,17.9,14.5,32.3,32.3,32.3c17.9,0,32.3-14.5,32.3-32.3
		C64.8,14.6,50.4,0.2,32.5,0.2L32.5,0.2z"/>
</g>
<g>
	<path class="st2" d="M27.7,52.7l0-20.6h-4.2l0-6.1l4.2,0v-6.3c0-3.8,3.1-6.9,6.9-6.9h6.9l0,6.1l-4.1,0c-1.3,0-2.3,1-2.3,2.3v4.8
		h6.3L40.9,32L35,32v20.6l0,0H27.7z"/>
	<path class="st1" d="M41,13.2v5.1h-3.6c-1.6,0-2.8,1.3-2.8,2.8v4.3v1h1h5.3l-0.4,5.1h-4.9h-1v1v19.6h-6.4V32.9v-0.3v-1h-1h-3.2
		v-5.1h3.2h1v-1v-5.8c0-3.5,2.9-6.4,6.4-6.4H41 M41.5,12.2h-6.9c-4.1,0-7.4,3.3-7.4,7.4v5.8h-3.7c-0.3,0-0.5,0.2-0.5,0.5V32
		c0,0.3,0.2,0.5,0.5,0.5h3.7v0.3v19.8c0,0.3,0.2,0.5,0.5,0.5H35c0.3,0,0.5-0.2,0.5-0.5V32.5h5.3c0.3,0,0.5-0.2,0.5-0.5l0.5-6.1
		c0-0.3-0.2-0.6-0.5-0.6h-5.8v-4.3c0-1,0.8-1.8,1.8-1.8h4.1c0.3,0,0.5-0.2,0.5-0.5v-6.1C42,12.4,41.7,12.2,41.5,12.2L41.5,12.2z"/>
</g>
</svg>
