<?xml version="1.0" encoding="utf-8"?>
<!-- Generator: Adobe Illustrator 23.0.0, SVG Export Plug-In . SVG Version: 6.00 Build 0)  -->
<svg version="1.1" id="Layer_1" xmlns="http://www.w3.org/2000/svg" xmlns:xlink="http://www.w3.org/1999/xlink" x="0px" y="0px"
	 viewBox="0 0 65 65" style="enable-background:new 0 0 65 65;" xml:space="preserve">
<style type="text/css">
	.st0{fill:#D4145A;}
	.st1{fill-rule:evenodd;clip-rule:evenodd;fill:#FFFFFF;}
</style>
<ellipse transform="matrix(0.3822 -0.9241 0.9241 0.3822 -9.9535 50.1125)" class="st0" cx="32.5" cy="32.5" rx="32.3" ry="32.3"/>
<path class="st1" d="M27.1,32.9v19.8c0,0.3,0.2,0.5,0.5,0.5H35c0.3,0,0.5-0.2,0.5-0.5V32.5h5.3c0.3,0,0.5-0.2,0.5-0.5l0.5-6.1
	c0-0.3-0.2-0.6-0.5-0.6h-5.8v-4.3c0-1,0.8-1.8,1.8-1.8h4.1c0.3,0,0.5-0.2,0.5-0.5v-6.1c0-0.3-0.2-0.5-0.5-0.5h-6.9
	c-4.1,0-7.4,3.3-7.4,7.4v5.8h-3.7c-0.3,0-0.5,0.2-0.5,0.5V32c0,0.3,0.2,0.5,0.5,0.5h3.7V32.9z"/>
</svg>
