<?xml version="1.0" encoding="utf-8"?>
<!-- Generator: Adobe Illustrator 23.0.0, SVG Export Plug-In . SVG Version: 6.00 Build 0)  -->
<svg version="1.1" id="Layer_1" xmlns="http://www.w3.org/2000/svg" xmlns:xlink="http://www.w3.org/1999/xlink" x="0px" y="0px"
	 viewBox="0 0 65 65" style="enable-background:new 0 0 65 65;" xml:space="preserve">
<style type="text/css">
	.st0{fill:#D4145A;}
	.st1{fill:#FFFFFF;}
</style>
<circle class="st0" cx="32.5" cy="32.5" r="32.3"/>
<path class="st1" d="M17.1,25.7h7.1v22.7h-7.1V25.7z M20.6,14.4c2.3,0,4.1,1.8,4.1,4.1c0,2.3-1.8,4.1-4.1,4.1
	c-2.3,0-4.1-1.8-4.1-4.1C16.5,16.2,18.4,14.4,20.6,14.4"/>
<path class="st1" d="M28.6,25.7h6.8v3.1h0.1c0.9-1.8,3.3-3.7,6.7-3.7c7.2,0,8.5,4.7,8.5,10.8v12.5h-7.1V37.4c0-2.6-0.1-6-3.7-6
	c-3.7,0-4.2,2.9-4.2,5.8v11.2h-7.1V25.7z"/>
</svg>
