<?xml version="1.0" encoding="utf-8"?>
<!-- Generator: Adobe Illustrator 23.0.0, SVG Export Plug-In . SVG Version: 6.00 Build 0)  -->
<svg version="1.1" id="Layer_1" xmlns="http://www.w3.org/2000/svg" xmlns:xlink="http://www.w3.org/1999/xlink" x="0px" y="0px"
	 viewBox="0 0 65 65" style="enable-background:new 0 0 65 65;" xml:space="preserve">
<style type="text/css">
	.st0{fill:#FFFFFF;}
	.st1{fill:#D4145A;}
	.st2{fill:#FFFFFF;stroke:#D4145A;stroke-miterlimit:10;}
</style>
<g>
	<path class="st0" d="M32.5,64.3c-17.6,0-31.8-14.3-31.8-31.8S14.9,0.7,32.5,0.7s31.8,14.3,31.8,31.8S50.1,64.3,32.5,64.3z"/>
	<path class="st1" d="M32.5,1.2c17.3,0,31.3,14.1,31.3,31.3S49.8,63.8,32.5,63.8c-17.3,0-31.3-14.1-31.3-31.3S15.2,1.2,32.5,1.2
		 M32.5,0.2C14.6,0.2,0.2,14.6,0.2,32.5c0,17.9,14.5,32.3,32.3,32.3c17.9,0,32.3-14.5,32.3-32.3C64.8,14.6,50.4,0.2,32.5,0.2
		L32.5,0.2z"/>
</g>
<path class="st2" d="M17.1,25.7h7.1v22.7h-7.1V25.7z M20.6,14.4c2.3,0,4.1,1.8,4.1,4.1c0,2.3-1.8,4.1-4.1,4.1
	c-2.3,0-4.1-1.8-4.1-4.1C16.5,16.2,18.4,14.4,20.6,14.4"/>
<g>
	<path class="st0" d="M44.1,47.9V37.4c0-2.4,0-6.5-4.2-6.5c-4.2,0-4.7,3.4-4.7,6.3v10.7h-6.1V26.2h5.8v3.1h0.8l0.2-0.3
		c0.8-1.6,3-3.4,6.3-3.4c6.6,0,8,4.1,8,10.3v12H44.1z"/>
	<path class="st1" d="M42.2,26.1c6.2,0,7.5,3.8,7.5,9.8v11.5h-5.1V37.4c0-2.5,0-7-4.7-7c-5.2,0-5.2,5.1-5.2,6.8v10.2h-5.1V26.7h4.8
		v2.1v1h1h0.1h0.6l0.3-0.5C37.1,27.8,39.1,26.1,42.2,26.1 M42.2,25.1c-3.4,0-5.7,1.9-6.7,3.7h-0.1v-3.1h-6.8v22.7h7.1V37.2
		c0-3,0.6-5.8,4.2-5.8c3.6,0,3.7,3.4,3.7,6v11.1h7.1V36C50.7,29.8,49.3,25.1,42.2,25.1L42.2,25.1z"/>
</g>
</svg>
