<?xml version="1.0" encoding="utf-8"?>
<!-- Generator: Adobe Illustrator 23.0.0, SVG Export Plug-In . SVG Version: 6.00 Build 0)  -->
<svg version="1.1" id="Layer_1" xmlns="http://www.w3.org/2000/svg" xmlns:xlink="http://www.w3.org/1999/xlink" x="0px" y="0px"
	 viewBox="0 0 100 100" style="enable-background:new 0 0 100 100;" xml:space="preserve">
<style type="text/css">
	.st0{fill:#FFFFFF;}
	.st1{fill:#D4145A;}
	.st2{fill:none;stroke:#D4145A;stroke-width:1.0126;stroke-linecap:round;stroke-miterlimit:10;}
	.st3{fill:none;}
</style>
<g>
	<g>
		<polygon class="st0" points="89.7,26.5 89.7,72.8 49.6,96 9.4,72.8 9.4,26.5 49.6,3.3 		"/>
		<path class="st1" d="M49.6,4.9l19.4,11.2l13.8,8l4.5,2.6l1.1,0.6v44.8L49.6,94.4l-1-0.6L44,91.2l-13.8-8L10.8,72.1V27.3L49.6,4.9
			 M49.6,3.3L9.4,26.5v46.3c0,0,40.1,23.2,40.1,23.2l40.1-23.2V26.5l0,0C89.7,26.5,49.6,3.3,49.6,3.3L49.6,3.3z"/>
	</g>
	<g>
		<path class="st1" d="M49.8,95.1c-0.3,0-0.5-0.2-0.5-0.5l-0.2-7c0-0.3,0.2-0.5,0.5-0.5c0.3,0,0.5,0.2,0.5,0.5l0.2,7
			C50.3,94.9,50.1,95.1,49.8,95.1C49.8,95.1,49.8,95.1,49.8,95.1z"/>
		<path class="st1" d="M49.6,88.2L17.1,69.6c-0.2-0.1-0.3-0.4-0.2-0.7c0.1-0.2,0.4-0.3,0.7-0.2l32,18.3l6.2-3.6
			c0.2-0.1,0.6-0.1,0.7,0.2c0.1,0.2,0.1,0.6-0.2,0.7L49.6,88.2z"/>
		<path class="st1" d="M49.6,88.1c-0.1,0-0.2,0-0.3-0.1l-5.5-3.2c-0.2-0.1-0.3-0.4-0.2-0.7c0.1-0.2,0.4-0.3,0.7-0.2l5.5,3.2
			c0.2,0.1,0.3,0.4,0.2,0.7C49.9,88,49.8,88.1,49.6,88.1z"/>
	</g>
	<g>
		<path class="st1" d="M17.4,65.1c-0.3,0-0.5-0.2-0.5-0.5V31.4l-6.7-3.9c-0.2-0.1-0.3-0.4-0.2-0.7c0.1-0.2,0.4-0.3,0.7-0.2l7.2,4.1
			v33.8C17.9,64.9,17.6,65.1,17.4,65.1z"/>
		<path class="st1" d="M17.4,31.7l-7.2-4.1c-0.2-0.1-0.3-0.4-0.2-0.7c0.1-0.2,0.4-0.3,0.7-0.2l6.7,3.9l28.8-16.6
			c0.2-0.1,0.6-0.1,0.7,0.2c0.1,0.2,0.1,0.6-0.2,0.7L17.4,31.7z"/>
		<path class="st1" d="M17.4,69.7c-0.3,0-0.5-0.2-0.5-0.5V30.8L49.4,12c0.2-0.1,0.6-0.1,0.7,0.2c0.1,0.2,0.1,0.6-0.2,0.7l-32,18.5
			v37.7C17.9,69.4,17.6,69.7,17.4,69.7z"/>
	</g>
	<g>
		<path class="st2" d="M81.7,31.1"/>
		<path class="st1" d="M81.7,44.6c-0.3,0-0.5-0.2-0.5-0.5V31.4L49.4,12.9c-0.2-0.1-0.3-0.5-0.2-0.7c0.1-0.2,0.5-0.3,0.7-0.2
			l32.3,18.8v13.2C82.3,44.4,82,44.6,81.7,44.6z"/>
	</g>
	<g>
		<path class="st1" d="M60.9,56.9v-5.5c0-3.5,1.6-4.2,4.6-2.4l9.3,5.6c3,1.8,4.6,4.4,4.6,7.9V68L60.9,56.9z M63.6,55.1l13.2,7.9V61
			c0-1.1-0.5-2-1.8-2.8l-9.6-5.7c-1.3-0.8-1.8-0.4-1.8,0.7V55.1z"/>
		<path class="st1" d="M60.7,38.4c0-3.4,1.7-4.1,4.6-2.3l0.6,0.3v3.3l-0.8-0.5c-1.3-0.8-1.8-0.5-1.8,0.6c0,1.1,0.5,2,1.8,2.8
			c3.8,2.3,4.5-4.1,9.8-0.9c3,1.8,4.6,4.5,4.6,7.9c0,3.4-1.7,4.2-4.6,2.4l-1.1-0.7v-3.3l1.3,0.8c1.3,0.8,1.8,0.4,1.8-0.7
			c0-1.1-0.5-2.1-1.8-2.9c-3.8-2.3-4.5,4.1-9.8,0.9C62.4,44.5,60.7,41.8,60.7,38.4z"/>
	</g>
	<g>
		<g>
			<path class="st1" d="M36.6,41.4c-0.6-0.7-0.9-1.8-0.9-3.2c0-3.9,2.6-8.5,5.9-10.4c3.2-1.9,5.9-0.2,5.9,3.6c0,1.4-0.3,2.8-0.9,4.2
				l1.5-0.9l0.1,17.7l-13,7.4V42.2L36.6,41.4z"/>
		</g>
		<g>
			<polygon class="st1" points="68.4,64.1 48.1,52 35.1,59.8 54.9,67.9 			"/>
		</g>
		<g>
			<path class="st1" d="M52.9,56.6L52.9,56.6c0.7-0.4,2-0.4,2.8,0.1l21.4,12.4c0.8,0.5,0.9,1.2,0.2,1.6l0,0c-0.7,0.4-2,0.4-2.8-0.1
				L53.1,58.2C52.2,57.8,52.2,57,52.9,56.6z"/>
		</g>
		<g>
			<path class="st1" d="M44,57.5L44,57.5c0.7-0.4,2-0.4,2.8,0.1L68.2,70c0.8,0.5,0.9,1.2,0.2,1.6l0,0c-0.7,0.4-2,0.4-2.8-0.1
				L44.2,59.1C43.3,58.6,43.3,57.9,44,57.5z"/>
		</g>
		<g>
			<path class="st1" d="M35.1,59.8l2.7-1.5l18.7,10.8c0.8,0.4,0.8,1.1,0.1,1.5l0,0c-0.7,0.4-1.9,0.4-2.7-0.1L35.1,59.8z"/>
		</g>
		<g>
			<path class="st0" d="M57.2,63.6c-0.8-0.5-0.9-1.2-0.2-1.6h0c0.7-0.4,2-0.4,2.8,0.1l17.3,10l-2.4,1.6L57.2,63.6z"/>
		</g>
		<g>
			<path class="st0" d="M52.6,66.9c-0.8-0.5-0.9-1.2-0.2-1.6c0.7-0.4,2-0.4,2.8,0.1l16.2,9.4l-2.6,1.5L52.6,66.9z"/>
		</g>
		<g>
			<g>
				<path class="st1" d="M61.7,60.3c-0.8-0.5-2.1-0.5-2.8-0.1l0,0c-0.7,0.4-0.6,1.1,0.2,1.6l17.2,10l2.6-1.5L61.7,60.3z"/>
			</g>
			<g>
				<path class="st1" d="M78.9,75v-4.8l-2.6,1.5v4.8c0,0.9,0.6,1.4,1.3,1l0,0C78.4,77.1,78.9,76,78.9,75z"/>
			</g>
		</g>
	</g>
	<path class="st3" d="M80.6,46.3v1.5c0.1-0.2,0.1-0.5,0.1-0.7C80.7,46.7,80.7,46.5,80.6,46.3z"/>
</g>
</svg>
