<?xml version="1.0" encoding="utf-8"?>
<!-- Generator: Adobe Illustrator 23.0.0, SVG Export Plug-In . SVG Version: 6.00 Build 0)  -->
<svg version="1.1" id="Layer_1" xmlns="http://www.w3.org/2000/svg" xmlns:xlink="http://www.w3.org/1999/xlink" x="0px" y="0px"
	 viewBox="0 0 118 118" style="enable-background:new 0 0 118 118;" xml:space="preserve">
<style type="text/css">
	.st0{fill:#ED1E79;}
	.st1{fill:#FFFFFF;}
</style>
<g>
	<g>
		<circle class="st0" cx="59" cy="59" r="58.5"/>
		<path class="st1" d="M59,1c32,0,58,26,58,58s-26,58-58,58S1,91,1,59S27,1,59,1 M59,0C26.4,0,0,26.4,0,59s26.4,59,59,59
			s59-26.4,59-59S91.6,0,59,0L59,0z"/>
	</g>
	<path class="st1" d="M40.8,45.7c0.2,0.2,0.4,0.3,0.7,0.3c0.3,0.1,0.1,0.2,0.3,0.3c0,0,0.2,0.1,0.3,0c0.1-0.1,0.2-0.3,0.3-0.6
		c0.1-0.2,0.1-0.6,0-0.6c-0.1-0.1-0.4,0-0.8,0c-0.3,0-0.5-0.1-0.7-0.1C40.6,45,40.6,45.4,40.8,45.7z M38.7,44.6
		c0.1,0.1,0.1-0.1,0.3-0.2c0.2-0.1-0.1,0.2,0,0.4c0,0,0.1,0,0.2,0c0.1,0,0.1-0.2,0.1-0.3c0-0.2,0.1-0.2,0.3-0.3
		c0.1-0.1,0.1-0.2,0.1-0.4c0-0.2,0.1-0.6,0.1-0.7c0-0.1-0.3,0.2-0.4,0.3c-0.2,0.1-0.5,0.5-0.6,0.7C38.6,44.4,38.6,44.5,38.7,44.6z
		 M39.9,42.7c0.1,0,0-0.1,0.1-0.3c0-0.1,0.2-0.4,0.2-0.6c0-0.2-0.2,0-0.3,0.1c-0.1,0.1-0.2,0.1-0.3,0.2
		C39.5,42.3,39.7,42.5,39.9,42.7C39.8,42.7,39.8,42.7,39.9,42.7z M47.1,48.3c0.2,0.1,0.1-0.1,0.3-0.1c0,0,0.2,0,0.5,0
		c0.3,0.1,0.6,0.2,0.8,0.1c0.3-0.1,0.3-0.3,0.2-0.5c-0.1-0.2-0.4-0.1-0.6-0.1c-0.2,0-0.2-0.1-0.3-0.1c-0.1,0-0.4,0-0.5,0
		c-0.1,0-0.3-0.1-0.5,0c-0.1,0.1,0.1,0.2-0.1,0.3C46.9,48.2,46.9,48.2,47.1,48.3z M48.9,45.2c0,0,0.1,0,0.2,0c0.1,0,0.1-0.2,0.1-0.4
		c-0.1-0.2-0.2-0.2-0.4-0.2c-0.2,0-0.1,0.2-0.1,0.4c0,0.1-0.2,0.1-0.1,0.2C48.7,45.2,48.7,45,48.9,45.2z M48.5,45.5
		c-0.2,0.1-0.1,0.3,0,0.4c0,0,0.1,0,0.2-0.1c0.1,0,0.2-0.1,0.1-0.3C48.8,45.4,48.7,45.4,48.5,45.5z M46.9,47.1
		c0-0.1,0.1-0.2-0.2-0.2c-0.2,0-0.2,0.2-0.1,0.4C46.7,47.3,46.9,47.2,46.9,47.1z M48,46.6c-0.1-0.2-0.3,0-0.2,0.2c0,0,0,0.1,0.2,0
		C48.1,46.8,48.1,46.8,48,46.6z M49,47.1c0,0,0.2,0,0.2-0.2c0-0.2,0-0.2-0.2-0.1C48.7,46.8,48.8,47,49,47.1z M49.4,46.6
		c-0.1,0-0.1,0.1,0,0.2c0,0,0.1,0.1,0.2-0.1C49.6,46.6,49.5,46.6,49.4,46.6z M49.4,47c-0.1,0-0.2,0.1-0.1,0.3c0,0,0.1,0,0.3-0.1
		C49.7,47.1,49.6,47.1,49.4,47z M49.7,47.5c0,0,0,0.1,0.1,0.2c0.1,0.1,0.3,0,0.4-0.2c0.1-0.2-0.2-0.3-0.3-0.3
		C49.8,47.1,49.7,47.3,49.7,47.5z M49.3,47.7c0,0,0.1,0.1,0.3,0c0.2-0.1,0-0.2-0.1-0.2C49.5,47.4,49.3,47.6,49.3,47.7z M53.3,48.7
		c0.1-0.1,0.3-0.3,0.5-0.4c0.2-0.1,0.4-0.1,0.4-0.3c0-0.2,0.3-0.3,0.4-0.3c0.1,0-0.1-0.1-0.3-0.2c-0.2-0.1-0.3,0.1-0.5,0.2
		c-0.2,0.1-0.3,0.1-0.4,0c-0.1-0.2-0.3,0.1-0.3,0.2c0,0.1-0.2,0.1-0.4,0.1c-0.2,0,0,0.2,0,0.4c0,0.1,0,0.3,0.2,0.5
		C52.9,48.8,53.1,48.9,53.3,48.7z M62.5,85.3c0,0,0.1,0,0.3,0c0.2,0,0.1-0.2,0-0.4c-0.1-0.2-0.4,0.1-0.5,0.2
		C62,85.2,62.4,85.1,62.5,85.3z M64.6,85.3c0.1-0.2,0-0.2-0.3-0.2c-0.3,0-0.3,0.1-0.2,0.3c0,0-0.1,0.1,0.1,0.2
		C64.5,85.7,64.5,85.5,64.6,85.3z M65.6,83.9c-0.1-0.1-0.2,0.2-0.1,0.4c0,0,0.1,0,0.2,0C65.7,84.1,65.7,84,65.6,83.9z M66,85.2
		c-0.3,0.4,0,0.5-0.2,0.7c-0.1,0.2-0.4,0.2-0.4,0.4c0,0.2,0.1,0.3-0.3,0.3c-0.4,0.1-0.3,0.2-0.4,0.3c-0.2,0.1-0.1-0.1-0.3-0.2
		c-0.1-0.1-0.1,0.2-0.4,0.4c-0.2,0.2-0.5,0.2-0.7,0.3c-0.2,0.1-0.3,0.2-0.5,0.2c-0.2,0-0.3,0.4-0.4,1c0,0-0.2,0.4-0.1,0.6
		c0.1,0.2,0.2,0.5,0.1,0.7c-0.1,0.2-0.3,0.6-0.4,0.9c-0.1,0.2-0.3,1.1-0.2,1.5c0.1,0.4,0.2,0.6,0.5,0.8c0.3,0.2,0.4,0.3,0.8,0.3
		c0.4,0,0.3-0.1,0.4-0.3c0.2-0.2,0.2-0.1,0.4-0.2c0.3-0.1,0.4-0.2,0.6-0.4c0.2-0.2,0.2-0.3,0.3-0.6c0.1-0.3,0.2-0.5,0.3-0.7
		c0.1-0.2,0.2-0.4,0.3-0.5c0.1-0.2,0.2-0.2,0.2-0.3c0-0.2,0-0.3,0.1-0.5c0.1-0.1,0.1-0.2,0.1-0.3c0-0.1,0.1-0.4,0.2-0.7
		c0.2-0.3,0.1-0.5,0-0.7c0-0.2,0.1-0.1,0.3,0c0.1,0.1,0.2-0.1,0.3-0.4c0.1-0.3-0.2-0.2-0.3-0.2c-0.1,0-0.1,0,0-0.1
		c0.1-0.1,0.4-0.4,0.5-0.6c0.1-0.2,0.1,0.2,0.3,0.2c0.2,0,0.1-0.2,0.1-0.5c0-0.2,0-0.8,0-1.1c0-0.3-0.3-0.4-0.5-0.5
		c-0.2-0.1,0-0.6-0.1-0.7C66.4,84.5,66.2,84.8,66,85.2z M70.3,89.8c-0.1,0.1-0.2,0.3,0,0.4c0,0,0.3,0.1,0.4,0.1c0.2,0,0-0.2,0-0.5
		C70.5,89.6,70.4,89.7,70.3,89.8z M71.7,89.1c-0.3,0.1-0.2,0.3-0.1,0.4c0,0,0.3-0.1,0.5-0.1c0.2-0.1,0.2-0.3,0.1-0.4
		C72.2,88.9,72,88.9,71.7,89.1z M87.2,64.8c-0.1-0.1-0.3-0.4-0.3-0.4c0-0.1-0.1,0-0.2,0.1c-0.1,0.1-0.1,0.6-0.1,0.6
		c0,0.1,0,0.1,0,0.2c0,0.1,0,0.2,0,0.6c0,0,0,0.3,0,0.4c0,0.1,0.1,0.1,0.2,0.3c0.1,0.2,0.1,0.4,0.2,0.5c0.1,0.1,0.3,0,0.5,0
		c0.2-0.1,0-0.2,0.1-0.4c0-0.2,0.1-0.4,0-0.5c-0.1-0.1,0-0.2,0-0.3c0-0.1,0-0.3,0-0.5c-0.1-0.2-0.1-0.3-0.1-0.4
		C87.5,64.9,87.3,64.9,87.2,64.8z M96.2,66.2c-0.1-0.2-0.1,0.2-0.2,0.4c-0.1,0.1-0.1-0.1-0.1-0.2c-0.1-0.1-0.2-0.4-0.4-0.5
		c-0.1-0.1-0.2-0.2-0.3-0.4C95.1,65.2,95,65.2,95,65c0-0.2,0-0.4-0.2-0.5c-0.2-0.1-0.2,0.1-0.3,0.2c-0.1,0.2-0.2,0.1-0.3,0.1
		c-0.1,0-0.1-0.2-0.2-0.3c-0.1-0.1-0.1,0.1-0.1,0.2c0,0.1,0.2,0.3,0.1,0.4c0,0.1,0,0.3,0,0.4c0.1,0.1,0.1,0.2,0.4,0.2
		c0,0,0.1,0,0.1,0.1c0,0.1,0.1,0.3,0.1,0.5c0,0.2,0,0.5,0.1,0.6c0.1,0.1,0.3,0.2,0.4,0.4c0.1,0.2,0.1,0.2,0.1,0.5
		c0,0.2,0.2,0.1,0.2,0.1c0.1,0,0.2,0,0.3,0c0.1,0.1,0,0.5,0,0.6c0,0.1,0.1,0.6,0.1,0.8c0,0.2,0.2,0.4,0.4,0.7c0.2,0.2,0,0.3,0.1,0.6
		c0.1,0.3,0.2,0,0.4-0.1c0.1-0.1,0.2-0.4,0.2-0.5c0-0.2,0-0.4,0.1-0.6c0.1-0.2,0.1-0.2,0.2-0.4c0.1-0.3,0-0.6-0.1-0.9
		c-0.1-0.4-0.1-0.1-0.2-0.2c-0.1-0.1-0.2-0.6-0.2-0.8c0-0.2-0.1-0.3-0.2-0.4C96.4,66.6,96.2,66.4,96.2,66.2z M94.4,67.2
		c0-0.1,0-0.3,0-0.6c-0.1-0.2-0.1,0.1-0.3,0.2C94,66.9,94.3,67.1,94.4,67.2C94.3,67.3,94.4,67.3,94.4,67.2z M94.9,67.9
		c0.1,0,0.1-0.2,0-0.4c-0.1-0.2-0.1-0.2-0.3-0.2c-0.2,0.1,0,0.2,0.1,0.4C94.8,67.8,94.8,68,94.9,67.9z M95.4,68.5
		c0-0.2-0.1-0.1-0.2-0.1c-0.2,0-0.1,0.1,0,0.4c0,0,0,0.2,0.2,0.1C95.5,68.9,95.4,68.7,95.4,68.5z M34.5,72c-0.1-0.1-0.2,0.2-0.2,0.5
		c0,0.2,0,0.2,0.1,0.4c0,0,0,0.1,0.1,0c0.1-0.1,0-0.1,0.1-0.2c0.1-0.1,0.1,0,0.2-0.1c0.1-0.1-0.1-0.3-0.1-0.3
		C34.5,72.3,34.5,72.1,34.5,72z M33.3,74.5c0.1-0.1,0-0.3-0.1-0.4c-0.1-0.2-0.2-0.2-0.3,0c-0.1,0.1,0,0.4,0.2,0.5
		C33.1,74.5,33.3,74.6,33.3,74.5z M25.3,46.5c0-0.2,0-0.2-0.2-0.2c-0.2,0-0.1,0.3,0,0.5C25.1,46.8,25.3,46.7,25.3,46.5z M40.1,31.4
		c0.2-0.1,0.2-0.3,0.2-0.2c0,0-0.2-0.1-0.2-0.2c0-0.1-0.2-0.1-0.4-0.1c-0.2,0.1-0.4,0.4-0.5,0.5c-0.1,0.1-0.2,0-0.2,0
		c0-0.1-0.2,0-0.2,0.1c0,0.1-0.2,0.1-0.3,0.2c-0.1,0-0.3,0.1-0.4,0.2c-0.1,0.1,0.2,0,0.3-0.1c0.1-0.1,0.3-0.1,0.3,0
		c0.1,0,0,0.1-0.1,0.3c0,0.1-0.3,0.4-0.3,0.5c0,0.2-0.3,0.5-0.3,0.5c0,0.1,0.2,0.1,0.3,0.2c0.1,0.1,0.1,0.1-0.1,0.2
		c-0.1,0.1-0.3,0.3-0.4,0.4c-0.1,0.2-0.5,0.3-0.6,0.4c-0.1,0.1-0.4,0.7-0.6,1c-0.2,0.3-0.1,0.3-0.4,0.4c-0.3,0.1-0.4,0-0.5,0.1
		c-0.1,0.1,0.3,0.3,0.5,0.3c0.2,0,0.3-0.1,0.5-0.3c0.2-0.1,0.2,0,0.3,0.1c0.2,0.1,0.6,0.2,0.9,0.2c0.3,0,0.3,0,0.6,0
		c0,0,0.3-0.2,0.3-0.2c0-0.1-0.1-0.2,0-0.3c0.1-0.1,0.2-0.1,0.5-0.2c0.3-0.1,0.2-0.2,0.2-0.3c0-0.1,0.2-0.1,0.4-0.2
		c0.2-0.1,0.1-0.2,0.1-0.4c-0.1-0.1-0.2-0.1-0.3-0.2c-0.1-0.1-0.2-0.2-0.2-0.3c-0.1-0.1,0.1-0.2,0.1-0.3c0-0.1-0.2,0.1-0.2,0
		c0-0.1,0.2-0.4,0.3-0.6c0-0.1-0.1-0.1-0.1-0.2c-0.1-0.1,0.3-0.3,0.4-0.4c0.1-0.1,0.3-0.5,0.3-0.6c0-0.1-0.1-0.1-0.2-0.1
		C39.9,31.6,39.9,31.5,40.1,31.4z M35.1,34.5c0,0.1,0,0.2,0.1,0.4c0.1,0.1,0.2-0.1,0.4-0.1c0.2,0,0.2,0.1,0.4,0.1
		c0.2,0,0.2-0.1,0.4,0c0,0,0.1,0,0.1-0.1c0,0,0.1-0.2,0.2-0.3c0.1-0.1,0.4-0.5,0.5-0.6c0.1-0.2,0.2-0.2,0.4-0.3
		c0.2-0.1,0.2-0.1,0.3-0.2c0.1-0.1,0-0.2,0-0.3c-0.1-0.1-0.2,0.1-0.3,0c-0.1,0,0-0.2,0-0.3c-0.1-0.1-0.1,0-0.3,0
		c-0.2,0.1-0.2,0.2-0.3,0.4c-0.1,0.2-0.2,0.1-0.3,0c-0.1-0.1-0.1-0.1-0.3,0c-0.3,0.1,0,0.2-0.1,0.4c-0.1,0.2-0.2,0.3-0.4,0.6
		c-0.2,0.3-0.2-0.1-0.3-0.1C35.4,34,35.2,34.3,35.1,34.5z M34.9,34.5c0,0,0.2-0.3,0.2-0.4c0-0.1-0.1,0.1-0.3,0.2
		C34.7,34.5,34.9,34.5,34.9,34.5z M38.4,31.4c0-0.1-0.1,0-0.2,0.1c-0.1,0.1,0,0.2,0.1,0.1C38.3,31.6,38.4,31.5,38.4,31.4z
		 M38.6,31.4c0.1-0.1,0-0.1,0-0.1s-0.2,0.1-0.2,0.2C38.4,31.5,38.5,31.5,38.6,31.4z M39,31.2c0.1-0.1,0.3-0.2,0.3-0.4
		c0.1-0.2-0.1-0.1-0.2,0c-0.1,0.1-0.2,0.2-0.3,0.2c-0.1,0.1-0.1,0.1-0.1,0.2c0,0,0,0.1,0,0.1C38.8,31.3,38.9,31.3,39,31.2z M40.5,31
		c0,0,0.2-0.2,0.3-0.2c0.1-0.1,0-0.1-0.1,0C40.7,30.8,40.5,30.8,40.5,31z M41.6,30c0,0.1,0,0.2-0.1,0.4c-0.1,0.2-0.2,0.2-0.1,0.3
		c0,0,0.1-0.1,0.2-0.2c0.1-0.1,0.3-0.2,0.4-0.3c0.1-0.1,0-0.1,0-0.3C42.1,29.8,41.7,29.9,41.6,30z M60.7,25.4
		c-0.1,0-0.2,0.1-0.1,0.2c0.1,0.1,0.4,0.1,0.5,0.1c0,0,0.2,0,0.3-0.1c0.1,0,0,0-0.2-0.1C61,25.5,60.9,25.4,60.7,25.4z M58.9,25.3
		c0.1,0.1,0,0.2,0.1,0.2c0.1,0,0.2,0,0.3-0.1c0.1-0.1,0-0.2,0.1-0.1c0.1,0,0,0.2,0.3,0.2c0,0,0.3,0,0.5-0.1c0.2,0,0.1,0,0.2-0.1
		c0-0.1-0.2-0.1-0.3-0.2c-0.1,0-0.2-0.1-0.3-0.2c-0.1-0.2-0.2-0.3-0.3-0.4c-0.1-0.1-0.2,0-0.4,0c-0.2,0-0.3,0.1-0.4,0.2
		c-0.1,0.1,0.1,0.2,0,0.2c-0.1,0,0,0.1,0.1,0.2C58.7,25.2,58.8,25.2,58.9,25.3z M58.9,24.3c0,0,0.4,0,0.4,0c0.1,0,0-0.1,0.1-0.2
		c0-0.1,0.2-0.1,0.5-0.1c0.2,0-0.1-0.1-0.2-0.2c-0.1-0.1,0.2-0.2,0.3-0.3c0.2-0.1,0-0.2-0.1-0.3c-0.1-0.1,0.1-0.1,0.3-0.1
		c0.2,0,0.2,0,0.2-0.1c0-0.1,0.1,0.1,0.3,0.1c0.2,0-0.1-0.1-0.1-0.2c-0.1-0.1-0.3,0-0.4,0c-0.1,0-0.2-0.1-0.3-0.1
		c-0.1-0.1-0.1,0-0.2,0.1c-0.1,0.1-0.2,0.2-0.2,0.2c-0.1,0-0.3,0-0.4,0.1c-0.1,0.1,0.1,0.2,0,0.4c-0.1,0.1-0.2,0.1-0.4,0.1
		c-0.2,0-0.2,0-0.3,0.1c-0.1,0.1,0.1,0.1,0.2,0.2c0.1,0.1,0,0.2-0.2,0.3C58.3,24.5,58.7,24.3,58.9,24.3z M41.2,26.5
		c0.1-0.2-0.4-0.1-0.5-0.1c-0.1,0-0.3,0.2-0.5,0.2c-0.3,0-0.2-0.1-0.4-0.1c-0.2,0-0.6,0.2-0.7,0.4c-0.2,0.2-0.7,0.6-0.6,0.7
		c0.1,0,0.3,0.2,0.5,0.2c0.3,0,0.3,0.1,0.5,0.1c0.2,0,0.3-0.1,0.4-0.2c0.1-0.1,0.2,0.1,0.6-0.1c0,0,0.4-0.2,0.5-0.4
		C41.1,27,41.2,26.7,41.2,26.5z M34.4,27c0.1-0.1,1.1-0.6,1.2-0.7c0.2-0.1,0.7-0.2,0.8-0.4c0.2-0.1,0.2-0.3,0.5-0.4
		c0.2-0.1,0.6-0.1,0.8-0.1c0.2-0.1,0.6-0.2,0.6-0.2s0.1,0.1,0.3,0c0.2-0.1,0.6-0.2,0.8-0.3c0.2-0.1,0.8-0.2,1-0.2
		c0.1,0,0.4-0.1,0.5,0c0,0.1,0.2,0.2,0.3,0.1c0.1,0,0.6-0.2,0.6-0.2l0.1,0.1c0.2-0.1,0.5-0.3,0.3-0.3c-0.2-0.1-0.1-0.2,0.1-0.2
		c0.1-0.1,0.6-0.2,0.5-0.1c-0.1,0.1,0,0.2,0.3,0.1c0.3-0.2,1.2-0.8,1.3-0.8c0.1,0,0,0.2,0.2,0.1c0.2-0.1,0.5-0.3,0.7-0.4
		c0.1-0.1,0.5-0.1,0.4-0.2c0-0.1,0.4-0.3,0.5-0.3c0.1,0,0.8-0.3,0.9-0.3c0.1-0.1,0.4-0.2,0.6-0.3c0.1-0.1,0.4-0.2,0.7-0.3
		c0.3-0.1,0.4-0.1,0.8-0.2c0.4-0.2,1-0.4,1.2-0.4c0.2,0,0.8,0,0.7-0.2c-0.1-0.2-0.5-0.3-0.8-0.4c-0.3-0.1-0.7,0-1.2-0.1
		c-0.4,0-0.2,0-0.7-0.1c-0.6-0.1-1,0-1.2,0.1c-0.2,0-0.9,0.2-1.2,0.3c-0.3,0.1-0.7,0.2-0.8,0.4c-0.1,0.2-0.1,0.2-0.6,0.3
		c-0.5,0.1-1.7,0.7-1.9,0.8c-0.2,0.1-0.6,0.2-0.9,0.3c-0.3,0.1-1.3,0.5-1.8,0.7c-0.5,0.2-1.1,0.5-1.5,0.7c-0.4,0.2-0.8,0.3-1.3,0.7
		c-0.5,0.3-1.3,0.8-1.7,1c-0.3,0.2-0.8,1-0.9,1.1C34.3,26.8,34.3,27.1,34.4,27z M51.9,22.8c-0.1,0.1-0.1-0.1-0.2-0.1
		c-0.1,0-0.2,0.1-0.2-0.1c0-0.2-0.1-0.2-0.2-0.1c-0.1,0.1,0.1,0.2-0.1,0.4c-0.2,0.2,0.1,0.1,0.3,0c0.1-0.1,0,0.1,0.1,0.1
		c0.1,0,0.1,0.2-0.1,0.4c-0.1,0.2,0.1,0.2,0.5,0.1c0,0,0.1-0.2,0-0.3c0-0.1,0.3-0.2,0.5-0.3c0.2-0.1,0.5-0.1,0.6-0.3
		c0.2-0.1-1-0.1-1.1-0.1C51.8,22.6,52,22.8,51.9,22.8z M52.7,23.1c-0.2,0-0.4,0.1-0.4,0.3c0,0,0.2,0,0.3,0c0.2,0,0.2,0.1,0.5-0.1
		C53.4,23,53,23.1,52.7,23.1z M56.5,22.4c0.1-0.2-0.3-0.1-0.4,0c-0.1,0-0.2,0.2-0.1,0.3C56.1,22.7,56.3,22.6,56.5,22.4z M55.4,22.5
		c0.1-0.1-0.1-0.1-0.3-0.1c-0.2-0.1-0.1,0.2,0.1,0.3C55.2,22.6,55.4,22.6,55.4,22.5z M56.5,22.1c0.1-0.1-0.5,0-0.5,0.1l0.1,0.1
		C56.1,22.3,56.4,22.2,56.5,22.1z M61.9,21.9c0.2-0.1-0.3-0.1-0.4-0.1c-0.1,0-0.3-0.2-0.3-0.2c0-0.1-0.1-0.1-0.2,0.1
		c-0.1,0.2,0.1,0.2,0.2,0.3C61.2,22,61.6,21.9,61.9,21.9z M61.7,22c-0.1,0-0.3,0.1-0.2,0.2c0,0,0.3,0.1,0.5,0.1
		c0.2,0.1,0.1-0.1,0.3-0.2c0.2-0.1,0.4,0,0.5-0.1c0.1-0.1-0.5-0.1-0.8,0C61.6,22.2,61.8,22,61.7,22z M63.7,21.9c0,0,0.1,0.1,0.2,0.1
		c0.2,0,0.2,0,0.4,0c0.2,0,0.1-0.2,0.1-0.2s0.1-0.3,0.2-0.3c0.1-0.1-0.1-0.2-0.2-0.1c-0.1,0.1-0.1,0.3-0.2,0.4
		c-0.1,0.1-0.2,0.1-0.2,0.1s-0.3-0.1-0.5,0C63.2,21.9,63.5,21.9,63.7,21.9z M24.4,40.9c0,0,0.3-0.1,0.2-0.3c0-0.1-0.3,0.1-0.5,0.2
		C24,41,24.4,40.9,24.4,40.9z M24.6,40.4L24.6,40.4c0,0.1,0.2,0,0.3-0.2C24.9,39.9,24.6,40.2,24.6,40.4z M24.4,40.1c0,0,0.2,0,0.2,0
		c0.1,0,0-0.1-0.1-0.2c-0.1-0.1-0.1-0.2-0.1-0.5c-0.1-0.3-0.2,0.1-0.3,0.2c-0.1,0.1-0.1,0.2,0,0.3C24.2,39.9,24.3,39.9,24.4,40.1z
		 M24.6,41.7c0.1,0,0.2-0.1,0.2-0.3C24.9,41.4,24.6,41.5,24.6,41.7C24.5,41.7,24.5,41.8,24.6,41.7z M24.4,41.9
		c-0.1-0.1-0.2,0.1-0.2,0.3l0.1-0.1C24.3,42.1,24.4,42,24.4,41.9z M35.3,43.9c-0.1-0.2,0-0.2-0.1-0.2c-0.1,0-0.3,0.2-0.2,0.3
		c0,0.1,0,0.1,0,0.3c0,0,0.1,0,0.1,0C35.3,44.2,35.4,44,35.3,43.9z M35.7,44.3c0,0,0.1,0.1,0.3,0.1c0.1,0,0.1-0.2,0-0.3
		C35.9,43.9,35.7,44.1,35.7,44.3z M36.2,43.8c0.2-0.1,0.1-0.3,0.1-0.4c0-0.1-0.2,0-0.4,0.2c-0.2,0.2-0.1,0.2,0,0.2
		C35.8,43.9,36,43.9,36.2,43.8z M36.9,43.5c0.1-0.1,0-0.2-0.1-0.3c-0.1-0.1-0.4,0.2-0.3,0.4c0,0,0,0.2,0.2,0.1
		C36.9,43.6,36.9,43.6,36.9,43.5z M39.4,43.1c-0.1,0-0.3,0.2-0.2,0.3c0,0,0.1,0,0.2-0.1C39.5,43.2,39.4,43.1,39.4,43.1z M42.1,47.1
		c-0.1,0-0.2,0.2-0.2,0.3c0,0,0.1,0.1,0.2-0.1C42.3,47.2,42.2,47.1,42.1,47.1z M68.4,66.1c-0.1,0-0.1,0.2,0,0.2c0,0,0.1-0.1,0.2-0.2
		C68.6,66.1,68.5,66.2,68.4,66.1z M69.6,65.6c-0.2,0-0.6,0.2-0.4,0.5c0,0,0,0.1,0.1,0.2c0.1,0.1,0.2,0,0.4,0
		c0.2-0.1,0.2-0.1,0.1-0.2C69.9,65.8,69.8,65.6,69.6,65.6z M89.7,36.5c0.2-0.1,0.2-0.2,0.2-0.6c0-0.1,0.1-0.3,0.1-0.4
		c-5.8-7.5-13.8-12.6-22.6-14.9c-0.3,0-1-0.1-1.5-0.1c-0.5-0.1-0.1,0.2,0.2,0.5c0.3,0.3,1.8,0.2,2.3,0.4c0.5,0.2,0.3,0.4-0.1,0.3
		c-0.3,0-0.7,0-0.8,0.3c-0.1,0.2-0.1,0.4-0.4,0.5c-0.2,0.1-1.2-0.7-1.4-0.9c-0.2-0.1-0.7,0.2-1.1,0.2c-0.4,0,0.3,0.3,0,0.5
		c-0.3,0.2-0.1-0.1-0.3-0.2c-0.2,0-0.4,0.1-0.6,0c-0.2,0-0.2,0.2-0.3,0.3c-0.1,0.1,0.1,0.1,0.3,0.1c0.2,0.1,0,0.3-0.2,0.4
		c-0.2,0.1,0.1,0.2,0.3,0.3c0.2,0.1,0.5,0,0.7,0c0.1,0.1-0.3,0.2-0.4,0.3c-0.2,0.1,0.2,0.2,0.3,0.3c0.1,0.1,0.3,0.1,0.6,0.1
		c0.3,0.1,0.8,0.4,0.8,0.5c0,0.1-0.8-0.4-1-0.5c-0.2-0.1-0.5,0-0.6,0c-0.1-0.1-0.1-0.2-0.4-0.2c-0.3,0,0,0.2,0.1,0.3
		c0.1,0.1,0.5,0.2,0.5,0.4c0,0.2-0.3,0-0.5-0.1c-0.1-0.1-0.4-0.3-0.5-0.4c-0.1-0.2-0.3-0.1-0.3,0c0,0.1,0.3,0.3,0.4,0.4
		c0.1,0.1,0.3,0.3,0.5,0.5c0.2,0.2,0.5,0.4,0.8,0.5c0.3,0.1,0.4,0,0.8,0c0.3,0,0.5,0.2,0.7,0.3c0.2,0.1,0.4,0.1,0.3,0.3
		c-0.1,0.2-0.6-0.3-0.8-0.4c-0.1-0.1-0.5-0.1-0.7-0.1c-0.2,0.1,0.4,0.4,0.4,0.8c0,0.4-0.3,0.1-0.3-0.2c0-0.3-0.4-0.6-0.7-0.8
		c-0.2-0.2-0.4-0.2-0.5-0.4c-0.1-0.2-0.3-0.3-0.6-0.5c-0.3-0.2-0.4-0.4-0.5-0.4c-0.1,0-0.2,0-0.3-0.1c-0.1-0.1-0.4-0.2-0.6-0.2
		c-0.2,0.1,0.3,0.1,0.2,0.4c0,0.2,0,0.3,0,0.4c-0.1,0.1,0,0.2,0.2,0.3c0.2,0.1,0.3,0.2,0.6,0.3c0.2,0.1,0.5,0.2,0.5,0.3
		c0,0.2,0,0.2-0.4,0.1c-0.4-0.1-0.3,0-0.6-0.1c-0.3,0-0.8,0-1.1,0.1c-0.3,0-0.3,0.1-0.1,0.2c0.2,0.1,0.2,0.2,0.1,0.4
		c0,0.2-0.3-0.1-0.5-0.1c-0.2,0-0.4,0.1-0.6,0.1c-0.2,0.1-0.2-0.1-0.3-0.2c-0.1-0.1-0.4,0.1-0.5,0.2c-0.2,0.1-0.4,0.1-0.6,0.2
		c-0.2,0.1-0.1-0.3-0.1-0.4c0-0.1-0.1,0.1-0.3,0c-0.2,0-0.3-0.1-0.3,0c0,0.1,0.2,0.1,0.2,0.2c0,0.2,0.1,0.2,0.2,0.4
		c0.1,0.2-0.1,0.2-0.4,0.3c-0.3,0-0.1-0.1-0.1-0.4c0-0.3-0.2-0.4-0.4-0.3c-0.3,0-0.2,0-0.4,0c-0.1,0-0.4-0.1-0.4,0
		c0,0.1,0.2,0.1,0.3,0.3c0.1,0.1,0,0.3,0.2,0.4c0.1,0.1,0.2,0.3,0.3,0.4c0,0.2-0.4,0.1-0.5,0c-0.1-0.1-0.2,0-0.3,0
		c-0.1,0.1-0.2,0-0.5,0c-0.2,0,0,0.1-0.3,0.3s-0.3,0.2-0.5,0.2c-0.2,0-0.2-0.1-0.5,0c-0.3,0.1-0.2,0.2-0.1,0.4
		c0.1,0.2,0.3,0.3,0.3,0.4c0,0.1-0.5,0-0.7-0.2c-0.1-0.2,0-0.5,0-0.8c0-0.3-0.2-0.4-0.3-0.5c-0.1-0.2,0.3,0,0.5,0.2
		c0.2,0.2,0.3,0.1,0.7,0.1c0.4,0.1,0.5-0.1,0.6-0.3c0.1-0.2-0.1-0.3-0.3-0.4c-0.2-0.1-0.1-0.1-0.2-0.3c-0.1-0.2-0.2-0.2-0.4-0.3
		c-0.2-0.1-0.5-0.1-0.7-0.1c-0.2,0-0.3,0.1-0.4,0c-0.1-0.1,0-0.2-0.1-0.3c-0.1,0-0.3,0-0.5,0.1c-0.2,0.1-0.3,0-0.2,0
		c0.1-0.1,0.3-0.1,0.3-0.3c0-0.2-0.2-0.1-0.5-0.1c-0.2,0-0.2-0.1-0.3-0.1c-0.1-0.1-0.1,0.1-0.3,0.2c-0.2,0.1-0.3,0-0.4,0
		c-0.1,0-0.1-0.2-0.3-0.2c-0.2,0-0.4,0-0.6,0.1c-0.1,0.1,0.3,0.1,0.2,0.2c-0.1,0.1-0.2,0-0.2,0c-0.1,0-0.3,0-0.4,0.1
		c-0.1,0.1-0.6,0.1-0.7,0.2c-0.2,0.1-0.4,0-0.5,0.1c-0.1,0.1,0.2,0.2,0.1,0.3c-0.1,0.1-0.3,0.2-0.4,0.2c-0.2,0,0.1-0.3,0.1-0.4
		c0-0.1-0.1,0-0.3,0.1c-0.1,0.1-0.3,0.2-0.5,0.3c-0.1,0.1,0.1,0.3-0.1,0.5c-0.1,0.2-0.2-0.2-0.3-0.1c-0.2,0.1-0.2,0.3-0.4,0.4
		c-0.1,0-0.2,0-0.4,0.2c-0.2,0.1,0.2,0.1,0.2,0.2c0,0.1-0.2,0.1-0.3,0.2C47.3,28,47.2,28,47,28.1c-0.1,0.1-0.1,0.2-0.4,0.3
		c-0.2,0.1-0.2,0.2-0.3,0.4c-0.1,0.2-0.2,0.1-0.3,0.3c-0.1,0.1-0.3,0.2-0.4,0.2c-0.1,0-0.2-0.1-0.4,0c-0.3,0.1-0.5,0.1-0.8,0.3
		c-0.3,0.2-0.1,0.3,0.1,0.3c0.1,0,0.2,0.1,0.1,0.2c-0.1,0.1-0.3-0.1-0.4-0.1c-0.1,0-0.2,0.1-0.3,0.2c-0.1,0.1,0.1,0.3,0.1,0.5
		c0,0.2-0.1,0.1-0.2,0c-0.1,0-0.3,0.2-0.5,0.3c-0.2,0.1,0.1,0.1,0.1,0.4c0,0.3-0.4,0.3-0.3,0.4c0.1,0.1,0.5,0.1,0.7,0.1
		c0.2,0,0.2-0.1,0.4-0.2c0.2-0.1,0.2-0.1,0.3-0.2c0.1-0.1,0.2-0.3,0.3-0.4c0.1-0.1,0.3-0.1,0.5-0.2c0.1-0.1,0.2-0.2,0.2,0
		c0,0.2-0.1,0.5-0.3,0.8c-0.2,0.3,0,0.3,0,0.6c0,0.3-0.1,0.6-0.1,0.9c0,0.3,0.3,0,0.6-0.1c0.3-0.1,0.6-0.4,0.8-0.5
		c0.2-0.2,0.4-0.1,0.4-0.3c0-0.2,0.2-0.2,0.3-0.4c0.2-0.1,0.1-0.2,0.1-0.4c0.1-0.2,0.3-0.4,0.4-0.5c0.1-0.1,0.4-0.2,0.5-0.3
		c0.1-0.1,0-0.2-0.1-0.4c-0.1-0.2,0-0.3,0.1-0.4c0-0.2,0.2-0.7,0.2-0.7c0,0,0.4-0.2,0.6-0.3c0.2-0.1,0.4-0.1,0.5-0.1
		c0.1-0.1,0-0.1,0.4-0.2c0.4-0.1,0.2-0.2,0.3-0.3c0-0.1,0.1-0.2,0.2-0.3c0.1-0.1,0.2-0.1,0.3-0.3c0.1-0.1,0.1,0,0.3,0
		c0.1,0,0.5,0.1,0.6,0.2c0,0.1-0.3,0.1-0.3,0.3c-0.1,0.1-0.1,0.1-0.3,0.1c-0.2,0-0.3,0.1-0.4,0.2c-0.1,0.1-0.4,0.3-0.7,0.5
		c-0.2,0.2-0.2,0.2-0.1,0.3c0,0.1,0,0.2,0,0.4c0,0.2-0.2,0.3-0.3,0.5c-0.1,0.1,0,0.4,0.1,0.5c0.1,0.2,0.3,0.1,0.6,0.1
		c0.3-0.1,0.6-0.2,0.9-0.3c0.3-0.1,1,0,1.2,0.1c0.2,0,0.1,0.1,0,0.2c-0.1,0.1-0.6,0.2-0.8,0.2c-0.2,0-0.7-0.1-0.9-0.1
		c-0.2,0.1-0.4,0.1-0.6,0.1c-0.2,0.1-0.3,0.2-0.3,0.4c0,0.1,0.1,0.2,0.1,0.2c0,0,0.2,0.1,0.4,0c0.2,0,0.1,0,0,0.2
		c-0.1,0.1-0.1,0.3-0.3,0.5c-0.2,0.2-0.2,0-0.3-0.1c-0.1,0-0.2-0.1-0.3-0.2c-0.1-0.1-0.1,0-0.2,0.1c-0.1,0.1-0.3,0.2-0.4,0.4
		c-0.1,0.1-0.1,0.3-0.3,0.4c-0.2,0.1-0.1,0.3-0.2,0.4c-0.1,0.2-0.3,0.3-0.5,0.4c-0.2,0.1-0.2,0.3-0.2,0.3c0,0.1-0.3,0.2-0.4,0.1
		c-0.1,0,0.1-0.1,0.1-0.2c0.1-0.1-0.1-0.1-0.3,0c-0.2,0-0.5,0.1-0.6,0.1c-0.1,0-0.7,0.1-0.8,0.1c-0.1,0-0.2,0.1-0.4,0.2
		c-0.1,0.1,0-0.2,0-0.3c0-0.1-0.2-0.1-0.3-0.1c-0.1,0-0.4,0-0.5,0c-0.1,0-0.3,0.1-0.4,0.1c-0.1,0-0.3-0.1-0.4-0.3
		c-0.1-0.1-0.1-0.4-0.1-0.5c0-0.1-0.1,0.1-0.2,0.1c-0.1,0.1-0.4,0.2-0.4,0.3c-0.1,0.2,0.2,0.4,0.1,0.5c-0.1,0.1-0.2,0.1-0.4,0.1
		c-0.2,0-0.4-0.1-0.5-0.2c-0.1-0.1-0.3,0.2-0.4,0.3c-0.1,0.1-0.4,0.2-0.5,0.2c-0.1,0-0.2,0-0.3,0c-0.1,0.1-0.1,0.1-0.2,0.4
		c-0.1,0.2-0.1,0.3-0.2,0.4c-0.1,0.1-0.1,0.1-0.2,0.1c-0.2-0.1-0.6,0.1-0.8,0.2c-0.3,0.1-0.5,0.3-0.7,0.4c-0.1,0.1-0.2,0.1-0.3,0.3
		c-0.1,0.2-0.2,0.1-0.5,0.1c-0.3,0-0.7-0.2-0.8-0.2c-0.1,0-0.2,0.3-0.3,0.4c-0.1,0.1-0.1,0-0.2,0c-0.1,0-0.1,0.1-0.2,0
		c-0.1-0.1-0.2-0.1-0.2-0.1c-0.1,0.1-0.3,0.1-0.3,0.2c0,0.1-0.2,0.2-0.3,0.3c-0.1,0.1-0.1,0.1,0.1,0.2c0.2,0.1,0.1,0.1,0.2,0.2
		c0.1,0.1,0.1,0,0.2,0c0.1,0,0.1,0,0.1,0.2c0.1,0.2,0.1,0.1,0.1,0.2c0,0.1-0.1,0.2-0.1,0.4c0,0.2,0,0.3-0.1,0.5
		c0,0.2-0.2,0.2-0.1,0.3c0.1,0.1,0.1,0.2,0,0.3c-0.1,0.1-0.1,0-0.1-0.1c0-0.1-0.1-0.1-0.1-0.1c-0.1,0.1-0.2,0.1-0.2,0.2
		c-0.1,0.1,0,0.2,0,0.2c0,0.2-0.2,0.1-0.4,0.3c-0.2,0.1-0.1,0.5-0.6,0.4c-0.5-0.1-0.3-0.2-0.5-0.3c-0.2,0-0.4-0.1-0.5-0.2
		c-0.1-0.2-0.2-0.2-0.3-0.2c-0.2,0-0.4-0.2-0.6-0.1c-0.2,0.1-0.2,0.1-0.3,0c-0.1-0.1-0.2,0-0.3,0.2c-0.1,0.2-0.2,0.5-0.2,0.8
		c-0.1,0.3-0.4,1-0.8,1.6c-0.4,0.5-0.7,0.9-0.7,1.2c0,0.3-0.1,0.5-0.2,0.7c-0.1,0.2,0.1,0.2,0.3,0.2c0.2,0,0.4,0,0.4,0.1
		c0.1,0.1,0,0.6,0.1,0.8c0.1,0.2,0.3-0.1,0.4-0.2c0.1-0.1,0.2-0.1,0.5-0.1c0.2,0,0.4,0.2,0.7,0.2c0.3,0,0.7,0,0.9-0.1
		c0.2-0.1,0.3-0.4,0.4-0.4c0.1-0.1,0.7-0.4,0.8-0.5c0.1-0.1,0.2-0.7,0.3-1c0.1-0.3,0.3-0.3,0.6-0.4c0.2-0.1,0.7-0.2,0.9-0.3
		c0.2,0,0.7-0.5,0.7-0.6c0-0.2,0.1-0.3,0.4-0.4c0.4-0.1,0.5,0,0.8,0c0.4,0,0.5,0.1,0.6,0c0.2-0.1,0.3-0.1,0.6-0.1
		c0.2,0,0.6-0.2,0.6-0.2c0.1,0,0.3,0.1,0.4,0.1c0.1,0,0-0.2,0.1-0.3c0.1-0.1,0.1,0.1,0.2,0.3c0.1,0.2,0.2,0.4,0.3,0.6
		c0.1,0.2,0.3,0.3,0.5,0.7c0.1,0.3,0,0.4,0.3,0.4c0.2,0.1,0.3,0.1,0.5,0.4c0.2,0.3,0.6,0.8,0.6,1.1c0,0.3-0.3,0.9-0.5,1
		c-0.2,0.1,0.1,0.2,0.3,0.1c0.3-0.1,0.4-0.1,0.5-0.3c0.1-0.2,0.1-0.4,0.2-0.5c0.1-0.1,0.4-0.2,0.4-0.4c0-0.2-0.2-0.2-0.2-0.3
		c-0.1-0.1,0.2-0.4,0.3-0.5c0.1-0.1,0.4,0.3,0.4,0.4c0.1,0.2,0.4-0.1,0.4-0.2c-0.1-0.1-0.2-0.5-0.5-0.5c-0.2-0.1-0.4-0.1-0.5-0.3
		c-0.1-0.2-0.2-0.4-0.3-0.6c-0.1-0.1-0.6-0.3-0.8-0.4c-0.1-0.1-0.1-0.8,0-1c0-0.2-0.3-0.1-0.5-0.2c-0.2-0.1-0.1-0.3,0-0.3
		c0.1,0,0.2-0.4,0.1-0.5c-0.1-0.1,0.1-0.1,0.3,0c0.3,0.1,0.1,0.2,0,0.3c0,0.2,0.1,0.3,0.3,0.3c0.1,0,0.2-0.2,0.2-0.4
		c0-0.2,0.1,0,0.3,0.2c0.2,0.2,0.1,0.3,0.3,0.5c0.1,0.2-0.1,0.3-0.2,0.5c-0.1,0.2,0.1,0.1,0.3,0.2c0.3,0.1,0.1,0.1,0.4,0.2
		c0.3,0.1,0.4,0.2,0.6,0.2c0.2,0.1,0.5,0.2,0.7,0.4c0.2,0.2,0.1,0.3,0.1,0.6c-0.1,0.3,0,0.5,0,0.9c0,0.4,0.1,0.1,0.3,0.4
		c0.2,0.3,0.2,0.4,0.3,0.6c0.1,0.2,0.1,0.2,0.3,0.3c0.1,0,0.5,0,0.5,0.2c0,0.2-0.3,0-0.6,0.1c-0.3,0.1-0.2,0.1-0.3,0.4
		c0,0.3,0.1,0.1,0.2,0.5c0.2,0.4,0,0.3,0.1,0.3c0.1,0,0.2-0.1,0.3,0.1c0.1,0.2,0.1,0.1,0.3,0c0.2-0.1,0.3-0.1,0.3-0.2
		c0-0.1,0-0.2,0.2-0.2c0.2,0.1,0.2-0.1,0.2-0.3c0-0.2,0-0.3-0.1-0.2c-0.1,0-0.2,0.3-0.4,0.2c-0.2-0.1,0.4-0.2,0.5-0.3
		c0.1-0.1,0.1-0.2,0.3-0.1c0.2,0,0.3,0,0.2-0.3c-0.1-0.2-0.3-0.4-0.8-0.9c-0.5-0.5,0.1-0.6,0.5-0.8c0.4-0.2,1.2-0.3,1.4-0.2
		c0.1,0,0.1,0.3-0.1,0.4c-0.1,0.1-0.2,0.3-0.2,0.4c0,0.1,0.3,0.2,0.3,0.1c0.1,0,0.2,0,0.3,0.3c0.1,0.3-0.2,0.5-0.3,0.5
		c-0.1,0-0.2,0.4-0.2,0.5c0,0.2,0.5,0,0.6,0c0.1,0,0.1,0.2,0.2,0.5c0.1,0.2,0.2,0.2,0.2,0.5c0.1,0.2-0.2,0.2,0.1,0.3
		c0.3,0.1,0.4,0,0.6,0c0.3,0,0.9,0.2,1.1,0.1c0.2-0.1,0.4-0.3,0.6-0.4c0.2-0.1,0.4,0.4,0.7,0.5c0.3,0.1,0.7-0.1,0.8-0.2
		c0.1-0.1,0.2-0.1,0.5-0.1c0.3,0,0.4,0,0.4-0.2c0-0.2,0.2-0.3,0.3,0c0,0.3-0.1,0.2-0.2,0.4c-0.1,0.2,0,0.3,0.1,0.6
		c0.1,0.3,0,0.5,0,0.7c0,0.2-0.1,0.3-0.1,0.5c-0.1,0.2-0.1,0.1-0.2,0.3c-0.1,0.2-0.1,0.4-0.1,0.7c0.1,0.3-0.2,0.5-0.4,0.8
		c-0.2,0.2-0.4,0.5-0.5,0.5c-0.2,0-0.6-0.1-0.8-0.2c-0.1-0.1-0.4-0.5-0.7-0.4c-0.3,0-1.3,0.3-1.7,0.5c-0.4,0.1-1.1-0.2-1.3-0.3
		c-0.3-0.2-0.6-0.1-0.9,0c-0.3,0.1-0.3-0.3-0.7-0.5c-0.3-0.2-0.6-0.1-0.9-0.1c-0.3,0-0.3-0.4-0.4-0.5c-0.1-0.2-0.9-0.2-1.3-0.2
		c-0.4,0-0.4,0-0.4,0.2c0,0.2-0.1,0.8-0.2,1.1c-0.1,0.3-0.7,0.4-0.8,0.4c-0.2,0-0.6-0.3-0.8-0.3c-0.2,0-0.4,0-0.5-0.1
		c-0.1-0.1-0.2-0.1-0.5-0.2c-0.3-0.1-0.3-0.4-0.3-0.7c0-0.3-0.3-0.4-0.8-0.7c-0.4-0.2-0.9,0-1,0.1c-0.1,0.1-0.6-0.1-0.9-0.6
		c-0.4-0.5,0.3-0.6,0.2-0.8c0-0.2,0.2-0.3,0.5-0.5c0.2-0.2,0-0.4-0.2-0.6c-0.2-0.2,0.1-0.5,0.4-0.7c0.3-0.3-0.3-0.2-0.3-0.3
		c-0.1,0,0.1-0.3,0-0.4c-0.1-0.1-0.3,0-0.3,0.2c0,0.2-0.3,0.2-0.5,0.3C38.4,46,38.2,46.2,38,46c-0.2-0.1-0.1-0.2-0.4-0.3
		c-0.3-0.1-0.7,0.1-0.9,0.2c-0.2,0.1-0.3,0-0.3-0.1c-0.1-0.1-0.2-0.2-0.7-0.2c-0.5-0.1-1,0-1.4,0.1c-0.4,0.1-1.3,0.4-1.6,0.5
		c-0.3,0.1-0.8,0-1.3-0.1c-0.4-0.2-0.5-0.4-0.7-0.6c-0.1-0.3-0.1-0.1-0.3,0.1c-0.2,0.2-0.2,0.2-0.4,0.5c-0.2,0.3-0.3,0.3-0.5,0.4
		c-0.2,0.1-0.4,0.2-0.5,0.3c-0.1,0.1-0.5,0.2-0.7,0.3c-0.2,0.1-0.1,0.5-0.3,0.7c-0.2,0.2-0.4,0.5-0.5,0.8c-0.1,0.3-0.1,0.3,0,0.5
		c0.1,0.2-0.1,0.2-0.2,0.2c-0.1,0-0.2,0-0.4,0.3c-0.2,0.3-0.4,0.3-0.6,0.3c-0.2,0-0.1,0.2-0.4,0.3c-0.3,0.1-0.5,0.1-0.7,0.3
		c0,0-0.5,0.4-0.8,0.7c-0.3,0.3-0.7,0.9-0.9,1.2c-0.2,0.3-0.5,0.7-0.6,0.9c-0.1,0.1-0.4,0.6-0.6,0.9c-0.3,0.3-0.4,0.4-0.4,0.6
		c0,0.2,0.2,0.8,0.2,0.9c0,0.1-0.2,0.5-0.2,0.8c0,0.2-0.1,0.5-0.2,0.7c-0.1,0.3-0.2,0.5-0.2,0.7c0,0.2-0.1,0.4-0.3,0.5
		c-0.2,0.1-0.1,0.5-0.2,0.7c-0.1,0.2-0.3,0-0.4,0.2c-0.1,0.2,0,0.5,0,0.7c0,0.3-0.1,0.7-0.1,0.8c0,0.1,0.1,0.5,0.1,0.9
		c0,0.4,0.2,0.5,0.3,0.7c0.1,0.2,0.1,0.4,0.2,0.6c0.1,0.2,0.1,0.5,0.1,0.7c0,0.3,0.3,0.3,0.5,0.6c0.1,0.3,0,0.7,0,1
		c0,0.2,0.1,0.7,0.1,1.1c0,0.3,0.5,0.5,0.8,0.9c0.3,0.4,0.6,0.8,1,1.5c0.4,0.6,0.7,0.6,1,0.7c0.3,0.1,0.4-0.2,0.6-0.3
		c0.2-0.1,0.1,0.1,0.4,0.2c0.3,0.1,0.5,0.1,0.6,0.1c0.2,0,0.2-0.1,0.4-0.1c0.2,0,0.2,0.2,0.3,0.5c0.2,0.3,0.3,0.1,0.8,0.2
		c0.4,0.1,0.6,0,0.9-0.1c0.2-0.1,1-0.4,1.1-0.5c0.1,0,0.3-0.1,0.6-0.1c0.3,0,0.2,0.1,0.2,0.3c0.1,0.2,0.2,0,0.4,0
		c0.2,0,0.3,0,0.5,0.2c0.2,0.2,0.4,0.7,0.5,1c0.1,0.3,0.2,0.5,0.4,0.6c0.2,0.1,0.6-0.1,0.9-0.1c0.3,0,0.6-0.1,0.8,0.1
		c0.2,0.2,0.3,0.7,0.3,0.9c0.1,0.1,0.4,0,0.5,0.2c0.1,0.2-0.2,0.5-0.2,0.7c-0.1,0.2,0,0.5,0,0.8c0,0.2,0,0.5,0,0.8
		c0,0.3,0,0.3-0.3,0.4c-0.3,0.1-0.2,0.2-0.1,0.4c0.1,0.2,0.3,0.3,0.3,0.6c0.1,0.3-0.1,0.2-0.1,0.4c0.1,0.1,0.2,0.1,0.3,0.1
		c0.2,0,0.3,0.2,0.2,0.4c-0.1,0.2,0.2,0.4,0.3,0.6c0.1,0.2,0.3,0.2,0.6,0.3c0.3,0.1,0.6,0.3,0.7,0.6c0.1,0.3,0,0.3,0.1,0.6
		c0.1,0.2,0,0.4,0,0.6c0,0.1,0.2,0.3,0.4,0.5c0.2,0.2,0.1,0.2,0.1,0.4c0,0.2,0.1,0.1,0.2,0.3c0.1,0.1,0.2,0.5,0.1,0.6
		c-0.1,0.1-0.1,0.4,0,0.5c0.1,0.1,0.3,0.2,0.3,0.3c0.1,0.2,0.4,1.1,0.5,1.3c0.1,0.2,0.1,0.4-0.1,0.6c-0.1,0.1-0.5,0.4-0.6,0.7
		c-0.1,0.3,0,0.4,0.1,0.7c0.1,0.3-0.1,0.2-0.2,0.5c-0.1,0.3-0.1,0.3-0.1,0.6c0,0.3,0,0.3,0.2,0.9c0.2,0.6,0.4,0.5,0.7,0.7
		c0.3,0.3,0.1,0.4,0.2,0.6c0.1,0.2,0.5,0.6,1,1.2c0.5,0.6,0.3,0.5,0.3,0.7c0,0.2,0,0.2,0.3,0.6c0.2,0.4,0.6,0.7,0.5,1.1
		c-0.1,0.4,0.2,0.3,0.3,0.7c0.1,0.4,0.8,0.7,1.2,1.1c0.4,0.4,0.6,0.5,1,1.1c0.4,0.6,0.8,0.8,0.9,0.9c0.1,0.1,0.1,0.2-0.1,0.2
		c-0.2,0-0.2,0.1-0.1,0.3c0.1,0.1,0.2,0.3,0.3,0.5c0.1,0.3,0.3,0.1,0.5,0.2c0.2,0.1,0.5,0.2,0.7,0.2c0.2,0,0.8-0.1,1.1-0.1
		c0.3,0,0.5,0.2,1,0.2c0.5,0,0.4,0,0.9,0c0.5,0.1,1.8-0.2,2-0.4c0.2-0.2,0.7-0.6,1.1-0.8c0.4-0.2,1.1-0.6,1.3-0.7
		c0.2-0.1,0.1-0.3,0.1-0.5c0-0.2,0.2-0.4,0.3-0.6c0.1-0.3,0.2-0.4,0.1-0.7c-0.1-0.3,0.2-0.2,0.5-0.4c0.3-0.2,1.1-0.4,1.3-0.5
		c0.2-0.1,0.2-0.1,0.1-0.3c-0.1-0.2,0.1-0.7,0.1-1c0-0.3,0-0.4-0.1-0.3c-0.1,0.1-0.2,0-0.3-0.4C55,90.6,55,90.4,55,90.3
		c0.1-0.2,0.8-0.3,1.1-0.5c0.3-0.2,0.3-0.2,0.5-0.5c0.3-0.2,0.5-0.4,0.6-0.5c0.1-0.1,0.4-0.1,0.7-0.3c0.3-0.2,0.5-0.3,0.6-0.4
		c0.1-0.1,0.2,0.1,0.4,0c0.2-0.1,0.6-0.4,1-0.6c0.4-0.2,0.3-0.6,0-0.8c-0.2-0.2-0.2-0.3-0.2-0.7c0-0.4,0-0.3-0.1-0.3
		c-0.1,0-0.1-0.1-0.1-0.3c0.1-0.2,0-0.4,0-0.5c-0.1-0.2-0.1-0.4-0.1-0.6c0-0.3-0.2-0.4-0.4-0.6c-0.2-0.1-0.3-0.3-0.3-0.5
		c0-0.2-0.3-0.1-0.4-0.3c-0.1-0.2,0-0.8,0.1-1c0.1-0.2-0.1-0.5-0.3-0.6c-0.2-0.1-0.1-0.6,0.1-0.9c0.2-0.4,0.5-0.5,0.7-0.7
		c0.3-0.2,0.6-0.7,0.8-0.8c0.2-0.1,0.4-0.4,0.3-0.7c0-0.3,0.2-0.3,0.4-0.3c0.2-0.1,0.2-0.3,0.2-0.5c0-0.2,0.1-0.2,0.3-0.3
		c0.3-0.2,0.6-0.5,0.8-0.8c0.1-0.3,0.6-0.5,1-0.8c0.4-0.3,0.6-0.6,0.6-0.7c0-0.2,0.2-0.4,0.6-0.5c0.4-0.1,0.9-0.4,1.1-0.7
		c0.2-0.3,0.5-0.8,0.7-1.3c0.2-0.4,0.7-0.9,0.6-1.3c-0.1-0.4,0.2-0.7,0.5-1c0.3-0.3,0.1-0.4,0.2-0.8c0.1-0.4,0.4-0.2,0.5-0.4
		c0.1-0.2-0.1-0.5-0.1-0.7c0-0.1,0.4-0.3,0.5-0.4c0.1-0.1,0-0.3-0.2-0.4c-0.1-0.1-0.1-0.3-0.2-0.6c-0.1-0.3-0.3-0.3-0.5-0.1
		c-0.2,0.1-0.4,0.2-0.6,0.3c-0.2,0.1-0.3,0.1-0.5,0.2c-0.1,0.1-0.6,0.1-1.3,0.2c-0.7,0.1-1.8,0.1-2.3,0.2c-0.6,0.1-0.7-0.1-0.9-0.3
		c-0.2-0.2-0.1-0.5-0.2-0.9c0-0.4-0.2-0.4-0.4-0.4c-0.2,0-0.3-0.2-0.6-0.6c-0.2-0.4-0.5-0.6-0.8-0.7c-0.3-0.2-0.9-0.1-1.1-0.2
		c-0.2-0.1-0.1-0.3-0.2-0.5c-0.1-0.2-0.2-0.9-0.3-1.2c-0.1-0.4-0.5-0.7-0.8-0.8c-0.3-0.1-0.3-0.6-0.3-1c0-0.4,0.1-0.8,0-0.9
		c0-0.1-0.1-0.3,0-0.4c0.1-0.1-0.1-0.3-0.3-0.3c-0.2,0-0.1-0.5-0.2-0.7c-0.1-0.2-0.3-0.4-0.5-0.4c-0.2-0.1-0.5-0.1-0.6-0.3
		c-0.1-0.2,0.2-0.3,0.3-0.3c0.1,0-0.3-0.3-0.5-0.5c-0.2-0.2-0.2-0.2-0.3-0.4c-0.1-0.1-0.1-0.2-0.1-0.4c-0.1-0.2,0-0.2-0.1-0.4
		c-0.1-0.2,0-0.3-0.2-0.6c-0.1-0.3-0.2-0.4-0.3-0.5c-0.1-0.1-0.1-0.3-0.2-0.6c-0.1-0.3-0.2-0.4-0.4-0.5c-0.1-0.1-0.3-0.5-0.4-0.8
		c-0.1-0.2-0.1-0.3,0.1-0.2c0.1,0.1,0.2,0.1,0.5,0.3c0.3,0.1,0.1,0.2,0.3,0.6c0.1,0.3,0.3,0.2,0.5,0.1c0.2-0.1,0-0.7,0.1-0.9
		c0.1-0.2,0.3-0.2,0.3,0c0,0.2-0.2,0.4-0.1,0.7c0.1,0.3,0.4,0.5,0.8,0.9c0.3,0.4,0.9,0.7,1.1,1.3c0.2,0.6,0,0.8,0.1,1.1
		c0.1,0.3,0.5,0.1,0.8,0.3c0.3,0.2,0.2,0.3,0.2,0.5c0.1,0.2,0.3,0.2,0.4,0.5c0.1,0.2-0.2,0.9-0.1,1.3c0.1,0.4,0.5,0.7,0.9,1
		c0.4,0.3,0.9,1.1,1.1,1.3c0.1,0.2,0.4,0.5,0.5,0.9c0.1,0.4,0.6,1,0.7,1.2c0.1,0.2-0.2,0.1-0.3,0.1c-0.1,0-0.2,0.5-0.1,0.7
		c0.1,0.2,0.3,0.4,0.6,0.7c0.2,0.3,0,0.7,0.3,0.9c0.2,0.3,0.5,0.2,0.9,0c0.4-0.2,0.6-0.4,0.8-0.5c0.2-0.1,0.6,0,0.9-0.2
		c0.3-0.2,0.7-0.4,1-0.4c0.4,0,0.5-0.2,0.7-0.4c0.3-0.2,0.6-0.4,1-0.6c0.4-0.2,0.9-0.3,1-0.4c0.2-0.1,0.3-0.3,0.4-0.6
		c0.1-0.3,0.3-0.3,0.5-0.4c0.2-0.1,0.2-0.1,0.4-0.2c0.1,0,0.2-0.1,0.5-0.3c0.3-0.2,0.6-0.1,0.9-0.3c0.2-0.2,0.1-0.3,0.6-0.4
		c0.5-0.1,0.3-0.1,0.3-0.4c0-0.3,0-0.3,0.2-0.5c0.2-0.2,0.5,0.1,0.7,0.1c0.2,0,0.1-0.1,0.1-0.4c0-0.3-0.2-0.7-0.4-0.9
		c-0.1-0.2-0.1-0.3,0.1-0.4c0.2-0.1,0.3,0.1,0.4,0.2c0.2,0,0.1-0.4,0-0.7c-0.1-0.3,0.2-0.4,0.3-0.7c0.1-0.3,0-0.3-0.2-0.6
		c-0.2-0.3-0.4-0.6-0.6-0.7c-0.2,0-1.3-0.2-1.4-0.3c-0.1-0.1-0.2-0.7-0.3-1.3c-0.1-0.5-0.5-0.3-0.6-0.2c-0.2,0.1-0.3,0.8-0.6,1.3
		c-0.4,0.5-0.7,0.1-1,0.2c-0.3,0.1-0.8,0.2-1,0c-0.2-0.2,0.1-0.3,0.1-0.6c0-0.3-0.3-0.4-0.5-0.2c-0.2,0.2-0.3,0.4-0.4,0.4
		c-0.1,0-0.1-0.5,0.1-0.6c0.2-0.1,0.1-0.2,0-0.4c-0.1-0.2-0.2,0-0.4-0.1c-0.2-0.1,0.1-0.2,0-0.4c-0.1-0.2-0.2-0.2-0.5-0.3
		c-0.2,0-0.2-0.2-0.3-0.5c-0.2-0.3-0.1-0.3-0.5-0.5c-0.3-0.2-0.4-0.4-0.5-0.7c-0.1-0.3-0.1-0.3,0-0.3c0.1,0,0.4-0.1,0.3-0.2
		c-0.1-0.1,0.1-0.5,0.3-0.4c0.3,0.1,0,0.3,0.1,0.4c0.1,0.1,0.4-0.2,0.7-0.1c0.3,0.1,0.2,0.4,0.4,0.8c0.2,0.4,0.3,0.7,0.4,0.9
		c0.2,0.2,0.4,0.1,0.7,0.2c0.3,0.2,0.4,0.4,0.7,0.5c0.3,0.1,0.8,0,1.1,0c0.3,0,0.5-0.5,0.7-0.5c0.2,0,0.5,0.3,0.7,0.6
		c0.2,0.3,0.6,0.4,0.9,0.4c0.3,0.1,0.4,0,0.7,0.1c0.4,0.1,1,0.2,1.4,0.1c0.4,0,0.4-0.2,0.6-0.4c0.3-0.1,0.6-0.2,0.9-0.2
		c0.3,0,0.4,0,0.8-0.1c0.3-0.1,0.8-0.3,1-0.3c0.2,0,0.3,0.3,0.4,0.4c0.1,0.1,0.2,0.1,0.3,0.2c0,0.1,0.3,0.4,0.5,0.5
		c0.2,0.1,0.4,0.2,0.6,0.3c0.2,0.1,0.1,0.1,0.3,0.2c0.2,0.1,0.5-0.2,0.6-0.1c0.1,0.1-0.1,0.2-0.3,0.5c-0.2,0.3-0.1,0.4,0,0.4
		c0.1,0.1,0.4,0.1,0.5,0.2c0.2,0.1,0.2,0.3,0.4,0.3c0.2,0.1,0.2-0.2,0.3-0.4c0.1-0.2,0.2-0.1,0.3-0.3c0.1-0.2-0.1-0.5-0.2-0.6
		c-0.1-0.2,0.1-0.1,0.3-0.1c0.1,0,0.1,0.4,0.2,0.5c0.1,0.1-0.1,0.3-0.1,0.5c0,0.1,0.2,0.3,0.2,0.6c0.1,0.3,0.3,0.9,0.4,1.5
		c0.1,0.6,0.4,0.8,0.5,1c0.1,0.2,0.1,0.5,0.2,0.7c0.1,0.2,0.3,0.4,0.5,0.7c0.1,0.3,0.5,0.5,0.6,0.9c0.2,0.4,0.2,0.6,0.4,0.9
		c0.1,0.3,0.4,0.8,0.7,1.1c0.3,0.3,0.6,0.8,0.6,1c0.1,0.2,0.3,0.5,0.5,0.8c0.2,0.3,0.4,0.1,0.5,0c0.2-0.1,0-0.3,0.2-0.6
		c0.1-0.3,0.2-0.1,0.3-0.2c0.1-0.2,0.3-0.3,0.2-0.5c-0.1-0.2-0.1-0.4,0.1-0.6c0.2-0.2,0.2-0.1,0.2-0.3c0-0.2-0.1-0.4-0.2-0.6
		c-0.1-0.2,0.2-0.7,0.2-0.9c0-0.1,0-0.5-0.1-0.7c0-0.2,0-0.4-0.1-0.6c-0.1-0.2-0.1-0.2-0.1-0.5c0-0.3-0.1-0.5-0.1-0.7
		c0-0.2,0.2-0.4,0.4-0.7c0.2-0.3,0.2-0.6,0.2-0.8c0-0.2,0.2-0.2,0.3-0.2c0.1-0.1,0.1-0.3,0.2-0.5c0-0.2,0.3-0.5,0.3-0.7
		c0.1-0.2,0.1-0.4,0.2-0.6c0.1-0.2,0.2-0.3,0.1-0.4c-0.1-0.1-0.1-0.3,0-0.3c0.1,0,0.2,0.1,0.2-0.1c0-0.2,0.2-0.3,0.1-0.5
		c0-0.3,0-0.4,0-0.7c0-0.3,0.2-0.4,0.3-0.4c0.1,0,0.1-0.1,0.2-0.3c0.1-0.2,0.2-0.1,0.3-0.3c0.1-0.1,0.3-0.4,0.5-0.5
		c0.2-0.1,0.2,0.1,0.3,0.3c0.1,0.2,0.2-0.1,0.4,0c0.2,0.1,0.4,0.6,0.5,0.7c0.1,0.2,0.1-0.1,0.3-0.1c0.1,0.1,0.1,0.3,0.2,0.5
		c0.1,0.2,0.2,0.2,0.3,0.4c0.1,0.2,0.1,0.1,0.2,0.1c0.1,0,0.3,0.4,0.4,0.6c0.1,0.3,0.1,1.1,0.2,1.4c0.1,0.3,0.2,0.5,0.5,0.4
		c0.2-0.1,0.1-0.4,0.1-0.6c0-0.2,0.2-0.4,0.1-0.5c0-0.1,0.1-0.4,0.2-0.2c0.1,0.2,0.4,1.1,0.4,1.3c0.1,0.2,0.5,0.5,0.5,0.9
		c0,0.4,0.1,0.8,0.3,0.9c0.2,0.2,0.3,0.5,0.3,1c0.1,0.5,0,0.9-0.1,1c-0.1,0.1-0.2,0.3-0.1,0.5c0.1,0.2,0.4,0.6,0.6,0.9
		c0.1,0.3,0.3,0.3,0.5,0.7c0.2,0.3,0.1,0.9,0.2,1.2c0.1,0.3,0.4,1.3,0.8,1.6c0.3,0.4,0.3-0.2,0.3-0.4c0-0.2-0.2-0.8-0.3-1
		c-0.1-0.2,0-0.8,0-1c0.1-0.2-0.1-0.3-0.2-0.5c-0.2-0.2-0.2-0.3-0.3-0.6c-0.1-0.3-0.2-0.1-0.3-0.1c-0.2-0.1-0.2-0.5-0.2-0.7
		c0-0.2-0.2-0.5-0.3-0.8c-0.1-0.3-0.1,0-0.2,0.1c-0.1,0.1-0.1-0.3-0.1-0.6c0-0.3,0.1-0.5,0.1-0.8c0-0.2,0-0.4-0.1-0.5
		c-0.1-0.2-0.1-0.5-0.1-0.7c0-0.2-0.2-0.6-0.1-0.7c0.1-0.1,0.1,0.2,0.2,0.3c0.1,0.1,0.2-0.2,0.3-0.1c0,0.1,0.3,1,0.6,1.1
		c0.3,0.1,0.3,0.1,0.4,0.3c0.1,0.2,0,1,0.1,1.2c0.1,0.2,0.1-0.2,0.2-0.6c0.1-0.5,0.1-0.6,0-1c-0.1-0.4,0.1-0.5,0.2-0.8
		c0.1-0.3,0-1.3-0.1-1.9c-0.1-0.6-0.5-1.5-1-2.3c-0.4-0.8-0.5-0.9-0.7-1.3c-0.2-0.4-0.3-0.7-0.4-1.1c-0.1-0.4,0-1,0-1.2
		c0-0.3,0.2-0.3,0.3,0c0.1,0.3,0.2,0.9,0.2,1.3c0,0.4,0.3,0.7,0.5,0.7c0.2,0,0-0.5,0-0.8c0-0.4-0.4-1.2-0.6-1.4
		c-0.1-0.3,0.1-0.2,0.1-0.6c0-0.4,0-0.6-0.1-0.9c-0.1-0.3,0.1-0.1,0.2-0.3c0-0.2-0.1-1.3-0.2-1.6c0-0.3-0.6-1.5-0.8-2.1
		c-0.3-0.6-1-2.3-1.2-2.7c-0.2-0.5-0.5-1.1-0.6-1.3c-0.1-0.1-0.9-0.8-1.1-1c-0.2-0.2-0.6-1-0.8-1.7c-0.2-0.7-0.2-0.4-0.7-0.5
		c-0.4-0.1-0.1,0.2-0.4-0.1C89.2,37,89.5,36.6,89.7,36.5z M50.7,43.5c-0.1,0.1-0.1,0.2,0,0.2c0.1,0.1,0.1,0.2-0.1,0.2
		c-0.3,0.1-0.6,0.1-0.9,0.1c-0.3,0-0.4,0-0.4,0c-0.1,0,0-0.2,0.3-0.2c0.3,0,0.3,0,0.5-0.2c0.2-0.2,0.4-0.1,0.5-0.2
		C50.7,43.5,50.8,43.4,50.7,43.5z M39,65.1c-0.1,0.1-0.3,0.2-0.5,0.3c-0.2,0.1-0.4,0.2-0.4,0.2c-0.1-0.1-0.2-0.1-0.2-0.3
		c0-0.2,0.1-0.3-0.1-0.4c-0.2-0.1-0.2-0.1-0.2-0.3c0-0.3,0-0.4,0.1-0.5c0.1,0,0.1,0.1,0.2,0c0.1,0,0.2-0.3,0.3-0.1
		c0.1,0.1,0.1,0.3,0.2,0.4c0.1,0.1,0.3,0.2,0.4,0.3C38.9,64.8,39,65,39,65.1z M54.2,76.6c0,0.2-0.2,0.4-0.2,0.6
		c0,0.2-0.2,0.3-0.1,0.5c0,0.2,0.1,0.3,0.1,0.4c0.1,0.1,0,0.2-0.1,0.2c-0.1,0-0.2-0.1-0.2,0.1c0,0.2-0.1,0.4-0.2,0.3
		c-0.1-0.1,0-0.4-0.2-0.4c-0.1,0-0.3,0-0.4,0.1c-0.1,0.1-0.2,0.1-0.3,0.1c-0.1,0.1-0.1,0.1-0.1,0.1c-0.1-0.1-0.1-0.2-0.2-0.6
		c-0.1-0.3,0-0.6-0.1-0.8l-0.2-0.4c0-0.1,0.1-0.1,0.2-0.2c0-0.1,0.2-0.2,0.3-0.2c0.1,0,0.3-0.1,0.6-0.2c0.2-0.1,0.6,0,0.8,0
		C54.1,76.3,54.2,76.5,54.2,76.6z M56.8,39.5c-0.1,0-0.4,0.1-0.5,0.2c-0.1,0.1-0.2,0.1-0.1,0.2c0.1,0.1,0.1,0.2,0.1,0.2
		c-0.1,0,0,0.2,0,0.2s-0.1,0.1-0.2,0c-0.1,0-0.2-0.1-0.3,0c-0.1,0.1-0.3,0.2,0,0.3c0.2,0,0.7,0.1,1,0.4c0.3,0.3,0.4,0.5,0.5,0.7
		c0.1,0.2,0.6,0.1,0.9,0.4c0.3,0.3,0.4,0.8,0.4,1c-0.1,0.2-0.4,0.4-0.7,0.4c-0.3,0-0.2-0.2-0.5-0.1c-0.3,0.1-0.5,0.2-0.9,0.1
		c-0.3-0.1-0.6-0.3-0.9-0.4c-0.3-0.1-1-0.3-1.3-0.3c-0.3,0-0.8-0.1-1,0c-0.2,0-0.4,0-0.5,0.2c-0.2,0.2-0.4,0.2-0.8,0.3
		c-0.4,0-0.7,0.1-0.9,0.1c-0.1,0-0.2,0-0.2-0.2c0-0.2,0-0.3-0.1-0.3c-0.1,0-0.1-0.1-0.1-0.1c0-0.2,0.2-0.5,0.1-0.6
		c0-0.1,0.3-0.6,0.4-0.8c0.1-0.2,0.4-0.6,0.6-0.8c0.1-0.1,0.3-0.2,0.5-0.3c0.2-0.1,0.3-0.2,0.4-0.4c0.1-0.2,0.3-0.3,0.5-0.4
		c0.2-0.1,0.5,0.1,0.6,0.2c0.1,0.1,0.1,0.2,0,0.3c-0.1,0.1-0.3,0.2-0.1,0.3c0.2,0.1,0.4,0,0.5,0c0.1,0,0.1,0.2,0.1,0.3
		c0,0.1,0,0.4,0.2,0.2c0.2-0.1,0.3-0.2,0.6-0.2c0.3,0,0.7,0.1,0.7-0.1c0-0.1,0-0.3-0.1-0.3c-0.2,0-0.4,0.1-0.5,0
		c-0.1-0.1-0.2-0.1-0.4-0.1c-0.2,0-0.2-0.4,0-0.4c0.2-0.1,0.4,0.1,0.7,0c0.2-0.1,0.4-0.2,0.5-0.2c0.1,0,0.3,0,0.5-0.2
		c0.2-0.1,0.5-0.2,0.6-0.1C56.8,39.3,56.9,39.4,56.8,39.5z M64.7,39.1c0,0.2-0.2,0.3-0.1,0.5c0.1,0.2,0.2,0.2,0.3,0.3
		c0.1,0.1,0.1,0.3,0,0.2c-0.2,0-0.1,0-0.3-0.1c-0.1-0.1-0.2-0.2-0.2-0.2c0,0,0,0.2-0.1,0.2c-0.1,0-0.4,0-0.3,0.1
		c0.1,0.1,0.3,0.1,0.2,0.2c-0.1,0.1-0.2,0.2-0.3,0.2c-0.1,0-0.4,0.2,0,0.4c0.3,0.2,0.5,0.2,0.6,0.5c0.2,0.3,0.1,0.4,0.4,0.4
		c0.2,0,0.6-0.1,0.5,0c-0.1,0.1-0.3,0.1-0.3,0.2c0,0.1-0.1,0.4,0.1,0.6c0.1,0.3,0.3,0.2,0.4,0.2c0.1,0,0.2-0.1,0.1-0.2
		c-0.1-0.2-0.2-0.5-0.1-0.5c0.2,0,0.2,0.2,0.2,0.4c0.1,0.1,0.3,0.4,0.3,0.5c0,0.1,0,0.2-0.2,0.1c-0.2,0-0.5-0.1-0.5,0.1
		c0,0.2,0,0.4,0.1,0.5c0.1,0.1,0.5,0.1,0.4,0.2c-0.1,0.1-0.3,0.1-0.2,0.3c0.1,0.2,0.2,0.1,0.4,0.4c0.2,0.2,0.2,0.3,0.2,0.7
		c0.1,0.4,0.2,0.5,0.3,0.6c0.1,0,0.3,0.3,0.3,0.4c0,0.1-0.2,0.3-0.3,0.1c-0.1-0.1-0.3-0.3-0.4-0.3c-0.1,0.1-0.4,0.2-0.5,0.4
		c-0.1,0.2-0.2,0.3-0.4,0.1c-0.2-0.2-0.6-0.5-0.9-0.6c-0.3-0.1-0.4,0.1-0.6-0.1c-0.2-0.3-0.2-0.6-0.3-0.8c-0.1-0.2,0-0.4,0.1-0.4
		c0.1,0,0.2,0.1,0.3,0.1c0.1-0.1,0-0.2,0.1-0.3c0.1-0.1,0.3-0.2,0.2-0.3c-0.1-0.1-0.2-0.2-0.2-0.4c0.1-0.1,0.3,0,0.2-0.2
		c-0.1-0.2-0.2-0.3-0.3-0.3c-0.2,0-0.1,0-0.3-0.1c-0.2-0.1-0.1-0.3-0.3-0.3c-0.2,0-0.2,0.1-0.3,0c-0.1-0.2,0-0.3-0.3-0.4
		c-0.2-0.2-0.3-0.1-0.3-0.4c0-0.3-0.1-0.5,0-0.5c0.1-0.1,0.1-0.2-0.1-0.2c-0.2,0-0.2,0.1-0.2,0.1c0,0-0.1,0-0.1,0
		c-0.1-0.1,0-0.2,0-0.3c0-0.1-0.2-0.2-0.3-0.3c-0.1-0.2,0-0.5,0.1-0.7c0.2-0.1,0.5-0.4,0.7-0.7c0.1-0.2,0.3-0.3,0.5-0.4
		c0.2-0.1,0.6-0.4,0.7-0.3c0.2,0,0.4,0.1,0.6,0.1C64.4,38.8,64.6,38.9,64.7,39.1z M76.2,37.2c0,0.1-0.4,0.2-0.6,0.2
		c-0.2,0.1-0.2,0.2-0.4,0.2c-0.2,0-0.3,0.1-0.3,0.3c0,0.2,0,0.2,0.1,0.3c0.1,0.1,0.2,0.2,0.1,0.2c-0.1,0.1-0.3,0-0.3,0
		c-0.1-0.1-0.2-0.2-0.3-0.3c-0.1-0.1-0.1-0.2-0.1-0.3c0-0.1,0-0.2-0.1-0.3c0-0.1,0.1-0.1,0.2-0.1c0.1,0,0-0.1,0.1-0.2
		c0.1,0,0.1,0,0.3,0c0.2,0,0.2-0.2,0.3-0.2c0.1,0,0.3,0.3,0.5,0.1c0.2-0.2,0.2-0.4,0.3-0.3C76.3,37,76.3,37.1,76.2,37.2z M80.8,30.5
		c0.2,0.2,0.5,0.9,0.6,1.2c0,0.2-0.4,0-0.4,0c-0.1-0.3-0.2-0.9-0.6-1.3c-0.3-0.4-1.4-1.3-0.9-1.2c0.5,0.1,1.1,0.7,1.3,1
		C80.9,30.3,80.6,30.3,80.8,30.5z"/>
</g>
</svg>
