<?xml version="1.0" encoding="utf-8"?>
<!-- Generator: Adobe Illustrator 23.0.0, SVG Export Plug-In . SVG Version: 6.00 Build 0)  -->
<svg version="1.1" id="Layer_1" xmlns="http://www.w3.org/2000/svg" xmlns:xlink="http://www.w3.org/1999/xlink" x="0px" y="0px"
	 viewBox="0 0 118 118" style="enable-background:new 0 0 118 118;" xml:space="preserve">
<style type="text/css">
	.st0{fill:#ED1E79;}
	.st1{fill:#FFFFFF;}
</style>
<g>
	<circle class="st0" cx="59" cy="59" r="58.5"/>
	<path class="st1" d="M59,1c32,0,58,26,58,58s-26,58-58,58S1,91,1,59S27,1,59,1 M59,0C26.4,0,0,26.4,0,59s26.4,59,59,59
		s59-26.4,59-59S91.6,0,59,0L59,0z"/>
</g>
<g>
	<path class="st1" d="M59.1,17.1c-10.3,0-18.8,9.5-18.8,21.2v0.8h0.8h1.1h0.9v-0.8c0-10.2,7.2-18.4,16-18.4c8.8,0,16,8.3,16,18.4
		v0.8h0.8H77h0.9v-0.8C77.9,26.6,69.4,17.1,59.1,17.1z"/>
	<polygon class="st1" points="40.8,38.1 40.8,38.1 42,38.1 42,38.1 	"/>
	<polygon class="st1" points="75.6,38.1 75.6,38.1 76.7,38.1 76.7,38.1 	"/>
	<g>
		<g>
			<path class="st1" d="M44.4,41.3c0,0.9-0.7,1.6-1.6,1.6h-2.5c-0.9,0-1.6-0.7-1.6-1.6v-9.4c0-0.9,0.7-1.6,1.6-1.6h2.5
				c0.9,0,1.6,0.7,1.6,1.6V41.3z"/>
		</g>
	</g>
	<g>
		<g>
			<path class="st1" d="M79.4,41.3c0,0.9-0.7,1.6-1.6,1.6h-2.5c-0.9,0-1.6-0.7-1.6-1.6v-9.4c0-0.9,0.7-1.6,1.6-1.6h2.5
				c0.9,0,1.6,0.7,1.6,1.6V41.3z"/>
		</g>
	</g>
	<ellipse transform="matrix(0.2298 -0.9732 0.9732 0.2298 9.0039 86.1906)" class="st1" cx="59" cy="37.4" rx="13.2" ry="13.2"/>
	<path class="st1" d="M41,68.5v26.7c0,3.1-2.5,5.6-5.6,5.6l0,0c-3.1,0-5.6-2.5-5.6-5.6V68.6c0-3,2.4-5.6,5.4-5.7
		c1.6-0.1,3.1,0.6,4.2,1.6C40.4,65.5,41,66.9,41,68.5z"/>
	<path class="st1" d="M39.3,72h6.5V52.5c0,0-13.4-0.5-16,14.5v5H39.3z"/>
	<path class="st1" d="M88.2,68.6v26.6c0,3.1-2.5,5.6-5.6,5.6l0,0c-3.1,0-5.6-2.5-5.6-5.6V68.5c0-1.5,0.6-3,1.7-4
		c1.1-1.1,2.6-1.7,4.2-1.6C85.9,63,88.2,65.5,88.2,68.6z"/>
	<path class="st1" d="M78.7,72h-6.6V52.5c0,0,13.4-0.5,16,14.5v5H78.7z"/>
	<g>
		<path class="st1" d="M74,52.5H43.9c-0.6,0-1.1,0.5-1.1,1.1v47.4h32.1V53.4C74.9,52.9,74.5,52.5,74,52.5z M59,55.4l3.1,2.3
			l-1.2,3.8H59h-1.9l-1.2-3.8L59,55.4z M59,93.9l-3.8-3.8l2-26.9H59h1.8l2,26.9L59,93.9z"/>
	</g>
	<polygon class="st0" points="59,63.3 57.2,63.3 55.2,90.2 59,93.9 62.8,90.2 60.8,63.3 	"/>
	<polygon class="st0" points="59,61.5 60.9,61.5 62.1,57.7 59,55.4 55.9,57.7 57.1,61.5 	"/>
</g>
</svg>
