<?xml version="1.0" encoding="utf-8"?>
<!-- Generator: Adobe Illustrator 23.0.0, SVG Export Plug-In . SVG Version: 6.00 Build 0)  -->
<svg version="1.1" id="Layer_1" xmlns="http://www.w3.org/2000/svg" xmlns:xlink="http://www.w3.org/1999/xlink" x="0px" y="0px"
	 viewBox="0 0 118 118" style="enable-background:new 0 0 118 118;" xml:space="preserve">
<style type="text/css">
	.st0{fill:#ED1E79;}
	.st1{fill:#FFFFFF;}
	.st2{fill-rule:evenodd;clip-rule:evenodd;fill:#FFFFFF;}
	.st3{fill-rule:evenodd;clip-rule:evenodd;fill:#ED1E79;}
	.st4{fill-rule:evenodd;clip-rule:evenodd;fill:#ED1E79;stroke:#FFFFFF;stroke-miterlimit:10;}
</style>
<g>
	<circle class="st0" cx="59" cy="59" r="58.5"/>
	<path class="st1" d="M59,1c32,0,58,26,58,58s-26,58-58,58S1,91,1,59S27,1,59,1 M59,0C26.4,0,0,26.4,0,59s26.4,59,59,59
		s59-26.4,59-59S91.6,0,59,0L59,0z"/>
</g>
<g>
	<path class="st2" d="M44.4,25.3c3-1.4,5.1,1.5,7.3,2.7c-2.1,1.1-8.4,4.8-11.6,11.9c-1.1-1.4-1.6-1.6-2.6-2.6
		C36.8,32.9,39.3,28.3,44.4,25.3z"/>
	<path class="st2" d="M48.8,28.2c3.8-1.9,7.4-4.1,11.3-3c1.2,0.3,2,1.3,3.2,1.9c8.4,4.3,12,3.7,13.9,5.1c1.3,0.9,1.8,1.1,2.1,2.2
		c-2.5,0.3-5.7,3.3-7.7,7.6c-1.9,4.1-2.3,8.2-1.2,10.5c-0.7-0.4-1.4-0.8-2.1-1.2c-1.1,0.5-2.3,1.5-3.4,2.1c-1.7,1.5-4.4,2.1-6.7,0.3
		c-1.4,1.1-2.7,2.8-5.4,1.5L49.2,59l-4.7-2.5c-2.8-1.9-7.8,0.8-11.3,6c-2.5,3.8-3.7,8.5-3,11.1l-2.6-1.3L17.1,60
		c-1.1-0.8-1.7-0.5-1.9-0.9c-1.6-1.3-1-4.3,0.5-8.1c0-0.1,0-0.1,0.1-0.2c0,0,0,0,0,0c3.2-7,9.5-10.8,11.6-11.9
		c2-0.9,4.3-1.6,6.6-2.2C38.8,35.2,43.7,31.9,48.8,28.2z"/>
	<path class="st2" d="M33.1,62.4c3.5-5.2,8.5-7.8,11.3-6l4.7,2.5l14.3,7.7c3.9,1.9,5.1,4.2,4.4,7c-0.6,8.5-9.1,18.6-15.2,19.1
		c-4,0.3-9.1-5.4-11.9-8.4l-8.9-9.2c0,0,0,0,0,0l-1.7-1.6C29.4,70.9,30.6,66.2,33.1,62.4z"/>
	<path class="st2" d="M67.1,35.8c-1.3,1.6-11.6,13.3-23.3,13.2c-8.6,3.7-10.7,7.1-13.4,10.5c-2.5,3-4.8,8.6-2.9,12.6L17.2,60
		c-1.1-0.8-1.7-0.5-1.9-0.9c-1.6-1.3-1-4.3,0.5-8.1c0-0.1,0-0.1,0.1-0.2c0,0,0,0,0,0C19,43.8,25.4,40,27.4,39c2-0.9,4.3-1.6,6.6-2.2
		c4.7-1.6,9.7-4.9,14.7-8.5c3.8-1.9,7.4-4.1,11.3-3c1.2,0.3,2,1.3,3.2,1.9c8.4,4.3,10.3,3.2,13.3,4.7c0.2,0.2,1.3,0.8,1.5,1.2
		C74.8,31,70.8,32.7,67.1,35.8z"/>
	<path class="st2" d="M71.5,42c2-4.3,5.2-7.3,7.7-7.6c0.3,0.2,0.5,0.3,0.8,0.5c0.2,0.1,0.4,0.2,0.5,0.3c3.5,1.8,7.8,3.1,11.7,4.6
		c4.3,1.7,8.1,3.6,11.4,5.5c5.7,6.2-7.8,25.2-13.1,22.4c-2.6-1-7.2-3.7-9.5-5.7c-2.8-3.1-5.8-6-9.1-8.4c-0.5-0.4-1-0.7-1.6-1.1
		C69.2,50.2,69.6,46.1,71.5,42z"/>
	<path class="st2" d="M20,36.2c3-1.4,5.1,1.5,7.3,2.7c-2.1,1.1-8.4,4.8-11.6,11.9c-1.1-1.4-1.6-1.6-2.6-2.6
		C12.3,43.5,14.7,38.8,20,36.2z"/>
	<path class="st2" d="M53.7,77.3c-4.3,6.6-5.5,13.4-2.6,15.4c2.9,1.9,8.8-1.8,13.1-8.4c4.3-6.6,5.5-13.4,2.6-15.4
		C63.9,66.9,58.1,70.7,53.7,77.3z"/>
	<path class="st3" d="M55.1,78.1c-3.4,5.2-4.5,10.6-2.3,12c2.2,1.4,6.7-1.7,10.1-6.9c3.4-5.2,4.5-10.6,2.3-12
		C63.1,69.8,58.5,72.9,55.1,78.1z"/>
	<path class="st2" d="M91.9,53.5c-3.5,6.3-4.1,12.6-1.3,14.1c2.8,1.5,7.8-2.3,11.3-8.5s4.1-12.6,1.3-14.1
		C100.4,43.4,95.4,47.2,91.9,53.5z"/>
	<path class="st4" d="M93.5,54.5c-2.8,5-3.5,10-1.5,11.1c2,1.1,5.8-2.1,8.6-7.1c2.8-5,3.5-10,1.5-11.1
		C100.1,46.3,96.3,49.5,93.5,54.5z"/>
	<path class="st3" d="M100.9,47.2c0.3,2.1-0.6,5.6-2.6,9.1c-2.3,4.1-5.3,7-7.4,7.3c-0.3-2.1,0.6-5.6,2.6-9.1
		C95.8,50.4,98.8,47.5,100.9,47.2z"/>
	<path class="st3" d="M64.6,70.9c0.2,2.5-1.1,6.4-3.6,10.3c-2.9,4.6-6.6,7.7-9,7.9c-0.2-0.6-0.3-1.2-0.3-1.8c0-2.9,1.5-6.2,3.7-9.6
		C58.9,72.4,62.8,70.4,64.6,70.9z"/>
</g>
</svg>
